<svg xmlns="http://www.w3.org/2000/svg" viewBox="-319.41 1249.927 158.337 77.934">
  <defs>
    <style>
      .cls-1 {
        fill: #f9f7f8;
      }

      .cls-2 {
        fill: #2a2a2a;
      }

      .cls-3 {
        fill: #b23a38;
      }

      .cls-4 {
        fill: #d7efff;
      }

      .cls-5 {
        fill: #b5403e;
      }
    </style>
  </defs>
  <g id="Group_54" data-name="Group 54" transform="translate(-323.227 1272.352) rotate(-11)">
    <g id="Group_37" data-name="Group 37" transform="translate(12.297)">
      <path id="Path_96" data-name="Path 96" class="cls-1" d="M52.3,0a21.975,21.975,0,0,0,.893,2.163c.329.705.705,1.387,1.105,2.069a38.355,38.355,0,0,0,2.586,3.88,48.051,48.051,0,0,0,6.3,6.819A65.537,65.537,0,0,0,70.5,20.62a88.227,88.227,0,0,0,8.018,4.7,121.247,121.247,0,0,0,17.235,7.1c5.925,1.952,11.991,3.527,18.1,4.985a116.1,116.1,0,0,1-18.528-3.574A95.287,95.287,0,0,1,77.67,26.992a79.85,79.85,0,0,1-8.159-4.914l-1.928-1.411c-.635-.47-1.246-.988-1.857-1.481-.306-.235-.611-.517-.917-.776l-.893-.776c-.141-.141-.306-.259-.447-.4l-.423-.423-.893-.823-.846-.846-.823-.87c-.541-.588-1.058-1.2-1.575-1.787l-.729-.94-.376-.47-.329-.494-.705-.964-.658-.988a39.644,39.644,0,0,1-2.281-4.162A20.059,20.059,0,0,1,52.3,0Z" transform="translate(-52.3)"/>
    </g>
    <g id="Group_38" data-name="Group 38" transform="translate(0 20.009)">
      <path id="Path_97" data-name="Path 97" class="cls-1" d="M0,85.1a18.975,18.975,0,0,0,1.411,2.539c.517.823,1.082,1.622,1.646,2.4a47.9,47.9,0,0,0,3.762,4.42,59.324,59.324,0,0,0,8.794,7.5,78.4,78.4,0,0,0,9.922,5.925,103.4,103.4,0,0,0,10.628,4.585c1.834.635,3.644,1.317,5.5,1.857l1.387.423c.47.141.917.306,1.387.423.94.259,1.881.494,2.8.752.47.118.94.259,1.411.376l1.411.329,2.821.682c.94.212,1.9.4,2.845.588s1.9.4,2.845.588c7.642,1.434,15.354,2.4,23.136,3.151a152.608,152.608,0,0,1-23.371-1.693c-1.928-.306-3.856-.635-5.784-1.011l-2.869-.611-1.434-.306c-.47-.118-.94-.235-1.434-.353-.964-.235-1.9-.494-2.845-.729-.47-.118-.94-.282-1.411-.4l-1.411-.423c-1.881-.541-3.738-1.223-5.6-1.857a95.867,95.867,0,0,1-10.792-4.773l-2.586-1.434c-.846-.494-1.693-1.011-2.539-1.528-.423-.259-.823-.517-1.246-.8l-1.223-.823c-.212-.141-.4-.282-.611-.423l-.588-.447-1.176-.87c-.4-.282-.776-.611-1.152-.917l-1.152-.94c-.376-.306-.752-.635-1.129-.964s-.729-.658-1.105-.988L9.193,98.314,8.653,97.8l-.517-.541L7.124,96.174,6.16,95.069a42.323,42.323,0,0,1-3.5-4.726A24.986,24.986,0,0,1,0,85.1Z" transform="translate(0 -85.1)"/>
    </g>
    <g id="Group_53" data-name="Group 53" transform="translate(80.647 6.113)">
      <g id="Group_45" data-name="Group 45">
        <g id="Group_39" data-name="Group 39" transform="translate(9.115 20.221)">
          <path id="Path_98" data-name="Path 98" class="cls-2" d="M393.132,112.238c.235.47-.893,1.528-2.516,2.328l-5.431,2.68c-1.622.8-3.151,1.058-3.386.588s.893-1.528,2.516-2.328l5.431-2.68C391.369,112.026,392.9,111.768,393.132,112.238Z" transform="translate(-381.768 -112.004)"/>
        </g>
        <g id="Group_40" data-name="Group 40" transform="translate(42.127 3.927)">
          <path id="Path_99" data-name="Path 99" class="cls-2" d="M533.532,42.938c.235.47-.893,1.528-2.516,2.328l-5.431,2.68c-1.622.8-3.151,1.058-3.386.588s.893-1.528,2.516-2.328l5.431-2.68C531.769,42.726,533.3,42.468,533.532,42.938Z" transform="translate(-522.168 -42.704)"/>
        </g>
        <path id="Path_100" data-name="Path 100" class="cls-3" d="M403.05,26l3.48,1.2,4.8,9.711-5.22,2.586-17.728,8.747S369,57.812,367.97,58.306c-1.035.517-20.2,9.969-20.2,9.969L344.105,60.8,343,58.565l1.152-3.433Z" transform="translate(-343 -26)"/>
        <g id="Group_41" data-name="Group 41" transform="translate(24.106 12.067)">
          <path id="Path_101" data-name="Path 101" class="cls-4" d="M461.2,80l-14.154,6.983a.35.35,0,0,1-.47-.141l-1.011-2.046a.31.31,0,0,1,.165-.447l14.154-6.983a.31.31,0,0,1,.447.165l1.011,2.046A.323.323,0,0,1,461.2,80Z" transform="translate(-445.524 -77.324)"/>
        </g>
        <g id="Group_42" data-name="Group 42" transform="translate(40.141 8.635)">
          <path id="Path_102" data-name="Path 102" class="cls-4" d="M519.455,63.517l-4.373,3.856a.334.334,0,0,1-.541-.094l-.776-1.575a.31.31,0,0,1,.165-.447l5.055-2.492a.31.31,0,0,1,.447.165l.094.212A.294.294,0,0,1,519.455,63.517Z" transform="translate(-513.724 -62.724)"/>
        </g>
        <path id="Path_103" data-name="Path 103" class="cls-4" d="M526.168,69.355l4.467,9.076-5.361,2.633-3.786-7.712a.354.354,0,0,1,.071-.4l4.068-3.715A.351.351,0,0,1,526.168,69.355Z" transform="translate(-479.496 -59.01)"/>
        <path id="Path_104" data-name="Path 104" class="cls-5" d="M553.682,32.364,552.06,31.8,537.6,38.924l5.384,10.91,15.542-7.665Z" transform="translate(-491.845 -30.436)"/>
        <path id="Path_105" data-name="Path 105" class="cls-5" d="M365.694,121.4l-15.424,7.877-.47,1.34,4.844,9.828,16.435-8.112Z" transform="translate(-348.201 -98.969)"/>
        <g id="Group_43" data-name="Group 43" transform="translate(16.831 19.7)">
          <path id="Path_106" data-name="Path 106" class="cls-4" d="M415.058,113.62l6.819-1.105a.355.355,0,0,0,.282-.494l-1.011-2.046a.354.354,0,0,0-.447-.165l-5.925,2.916a.354.354,0,0,0-.165.447l.118.212C414.8,113.55,414.917,113.644,415.058,113.62Z" transform="translate(-414.584 -109.784)"/>
        </g>
        <g id="Group_44" data-name="Group 44" transform="translate(17.558 22.921)">
          <path id="Path_107" data-name="Path 107" class="cls-4" d="M428.755,131.083l-3.668-7.406a.334.334,0,0,0-.329-.188l-6.772,1.223a.355.355,0,0,0-.282.494l4.491,9.1" transform="translate(-417.675 -123.485)"/>
        </g>
        <path id="Path_108" data-name="Path 108" class="cls-5" d="M472.239,98.324l-14.789,7.289L454.041,98.7a1,1,0,0,1,.47-1.364l12.932-6.4a1,1,0,0,1,1.364.47Z" transform="translate(-427.848 -75.587)"/>
      </g>
      <g id="Group_52" data-name="Group 52" transform="translate(4.702 10.745)">
        <g id="Group_46" data-name="Group 46" transform="translate(15.487 31.954)">
          <path id="Path_109" data-name="Path 109" class="cls-2" d="M440.232,207.838c-.235-.47-1.763-.212-3.386.588l-5.431,2.68c-1.622.8-2.751,1.857-2.516,2.328s1.763.212,3.386-.588l5.431-2.68C439.339,209.366,440.467,208.308,440.232,207.838Z" transform="translate(-428.868 -207.604)"/>
        </g>
        <g id="Group_47" data-name="Group 47" transform="translate(48.498 15.66)">
          <path id="Path_110" data-name="Path 110" class="cls-2" d="M580.632,138.538c-.235-.47-1.763-.212-3.386.588l-5.431,2.68c-1.622.8-2.751,1.857-2.516,2.328s1.763.212,3.386-.588l5.431-2.68C579.739,140.066,580.867,139.008,580.632,138.538Z" transform="translate(-569.268 -138.304)"/>
        </g>
        <path id="Path_111" data-name="Path 111" class="cls-3" d="M430.175,84.914l1.176-3.5-4.8-9.711-5.22,2.586-17.728,8.747S384.232,92.6,383.2,93.1c-1.035.517-20.2,9.969-20.2,9.969l3.691,7.477,1.105,2.234,3.409,1.176Z" transform="translate(-363 -71.7)"/>
        <g id="Group_48" data-name="Group 48" transform="translate(28.799 20.311)">
          <path id="Path_112" data-name="Path 112" class="cls-4" d="M499.83,158.113l-14.154,7.007a.346.346,0,0,0-.165.447l1.011,2.046a.354.354,0,0,0,.447.165l14.154-6.983a.354.354,0,0,0,.165-.447l-1.011-2.046A.344.344,0,0,0,499.83,158.113Z" transform="translate(-485.484 -158.086)"/>
        </g>
        <g id="Group_49" data-name="Group 49" transform="translate(45.041 18.735)">
          <path id="Path_113" data-name="Path 113" class="cls-4" d="M560.59,151.386l-5.737,1.129a.35.35,0,0,0-.259.494l.776,1.575a.354.354,0,0,0,.447.165l5.055-2.492a.354.354,0,0,0,.165-.447l-.094-.212A.322.322,0,0,0,560.59,151.386Z" transform="translate(-554.562 -151.381)"/>
        </g>
        <path id="Path_114" data-name="Path 114" class="cls-4" d="M547.228,116.776l-4.467-9.076-5.361,2.657,3.809,7.712a.332.332,0,0,0,.353.188l5.431-.988A.352.352,0,0,0,547.228,116.776Z" transform="translate(-496.395 -99.236)"/>
        <path id="Path_115" data-name="Path 115" class="cls-5" d="M580.562,85l-.541,1.646-14.437,7.124L560.2,82.865,575.718,75.2Z" transform="translate(-513.834 -74.377)"/>
        <path id="Path_116" data-name="Path 116" class="cls-5" d="M391.843,178.01l-15.636,7.477-1.364-.47-4.844-9.8,16.459-8.112Z" transform="translate(-368.354 -144.669)"/>
        <g id="Group_50" data-name="Group 50" transform="translate(22.413 27.989)">
          <path id="Path_117" data-name="Path 117" class="cls-4" d="M458.414,195.575l5.032-4.726a.355.355,0,0,1,.564.071l1.011,2.046a.31.31,0,0,1-.165.447l-5.925,2.916a.31.31,0,0,1-.447-.165l-.118-.212A.319.319,0,0,1,458.414,195.575Z" transform="translate(-458.326 -190.741)"/>
        </g>
        <g id="Group_51" data-name="Group 51" transform="translate(17.329 19.586)">
          <path id="Path_118" data-name="Path 118" class="cls-4" d="M443.213,155l3.668,7.406a.319.319,0,0,1-.047.376l-5.079,4.608a.355.355,0,0,1-.564-.071l-4.491-9.1" transform="translate(-436.7 -155)"/>
        </g>
        <path id="Path_119" data-name="Path 119" class="cls-5" d="M483.289,121.9,468.5,129.189l3.409,6.913a1.008,1.008,0,0,0,1.364.47l12.932-6.4a1.008,1.008,0,0,0,.47-1.364Z" transform="translate(-443.695 -110.097)"/>
      </g>
    </g>
  </g>
</svg>
