<svg xmlns="http://www.w3.org/2000/svg" viewBox="7333 1395 125 125">
  <defs>
    <style>
      .cls-1 {
        fill: #00b8f1;
      }

      .cls-2 {
        fill: #9fdcf1;
      }

      .cls-3 {
        fill: #fff;
      }

      .cls-4 {
        fill: #92d8ef;
      }

      .cls-5 {
        fill: #d0d2d3;
      }

      .cls-6 {
        fill: #37b34a;
      }

      .cls-7 {
        fill: #2a963e;
      }

      .cls-8 {
        fill: #e6e6e6;
      }

      .cls-9 {
        fill: #009042;
      }

      .cls-10 {
        fill: #47a141;
      }

      .cls-11 {
        fill: #2e2a25;
      }

      .cls-12 {
        fill: #898787;
      }

      .cls-13 {
        fill: #95d600;
      }
    </style>
  </defs>
  <g id="Group_531" data-name="Group 531" transform="translate(6725 -666)">
    <path id="Path_1" data-name="Path 1" class="cls-1" d="M0,62.5A62.5,62.5,0,1,0,62.5,0,62.506,62.506,0,0,0,0,62.5" transform="translate(608 2061)"/>
    <path id="Path_2" data-name="Path 2" class="cls-2" d="M2.6,61.852A61.852,61.852,0,1,0,64.476,0,61.846,61.846,0,0,0,2.6,61.852" transform="translate(606.024 2061)"/>
    <path id="Path_3" data-name="Path 3" class="cls-3" d="M164.554,129.5a30.892,30.892,0,1,0,25.168,13.028A30.892,30.892,0,0,0,164.554,129.5" transform="translate(506.378 1962.57)"/>
    <path id="Path_4" data-name="Path 4" class="cls-4" d="M434.258,86.5,428.5,93.53l.84.936a55.211,55.211,0,0,1,4.415,5.542l1.1,1.584,5.758-7.054a61.835,61.835,0,0,0-6.358-8.037" transform="translate(282.307 1995.253)"/>
    <path id="Path_5" data-name="Path 5" class="cls-5" d="M163.246,109.933c13.364,0,25.072,8.157,31.646,20.417C192.085,113.076,178.985,100,163.246,100s-28.839,13.076-31.646,30.35c6.574-12.26,18.282-20.417,31.646-20.417" transform="translate(507.974 1984.992)"/>
    <path id="Path_6" data-name="Path 6" class="cls-1" d="M88.518,310.8c-23.2,0-43.522-14.947-54.918-37.4,4.87,31.67,27.591,55.638,54.918,55.638s50.048-23.968,54.918-55.638c-11.4,22.433-31.718,37.4-54.918,37.4" transform="translate(582.461 1853.195)"/>
    <path id="Path_7" data-name="Path 7" class="cls-6" d="M207.846,177.787l3.023-3.335a.387.387,0,0,0,.1-.168.528.528,0,0,0-.024-.192.637.637,0,0,0-.12-.144.452.452,0,0,0-.192-.048h-2.5a.4.4,0,0,0-.12.048.525.525,0,0,0-.12.072l-2.543,2.9v-2.687a.234.234,0,0,0-.1-.216.293.293,0,0,0-.216-.1h-2.327a.234.234,0,0,0-.216.1.293.293,0,0,0-.1.216v7.8a.234.234,0,0,0,.1.216.293.293,0,0,0,.216.1h2.327a.234.234,0,0,0,.216-.1.293.293,0,0,0,.1-.216v-2.951l3.263,3.167c.024.024.072.024.12.048a.261.261,0,0,0,.12.024h2.9a.452.452,0,0,0,.192-.048.246.246,0,0,0,.12-.144.468.468,0,0,0,.024-.192.718.718,0,0,0-.1-.192Z" transform="translate(454.16 1928.823)"/>
    <path id="Path_8" data-name="Path 8" class="cls-6" d="M246.279,173.9h-2.015a.218.218,0,0,0-.192.1.387.387,0,0,0-.072.216v7.8a.293.293,0,0,0,.072.216.218.218,0,0,0,.192.1h2.015a.218.218,0,0,0,.192-.1.387.387,0,0,0,.072-.216v-7.8a.293.293,0,0,0-.072-.216.218.218,0,0,0-.192-.1" transform="translate(422.541 1928.823)"/>
    <path id="Path_9" data-name="Path 9" class="cls-6" d="M266.686,180.114h-3.911V179.2h3.1a.234.234,0,0,0,.216-.1.308.308,0,0,0,.1-.24v-1.56a.234.234,0,0,0-.1-.216.293.293,0,0,0-.216-.1h-3.1v-.864H266.4a.234.234,0,0,0,.216-.1.308.308,0,0,0,.1-.24v-1.583a.234.234,0,0,0-.1-.216.293.293,0,0,0-.216-.1h-6.286a.234.234,0,0,0-.216.1.293.293,0,0,0-.1.216v7.8a.234.234,0,0,0,.1.216.293.293,0,0,0,.216.1h6.574a.308.308,0,0,0,.24-.1.293.293,0,0,0,.1-.216v-1.584a.308.308,0,0,0-.1-.24.7.7,0,0,0-.24-.072" transform="translate(410.532 1928.823)"/>
    <path id="Path_10" data-name="Path 10" class="cls-6" d="M300.37,177.379a4.6,4.6,0,0,0-2.4-.984,6.256,6.256,0,0,1-.84-.192,6,6,0,0,1-.6-.192c-.168-.072-.264-.144-.264-.264s.1-.216.264-.264a2.973,2.973,0,0,1,.744-.072,5.518,5.518,0,0,1,1.44.216,7.212,7.212,0,0,1,.768.264,6.107,6.107,0,0,1,.7.312.287.287,0,0,0,.336-.024.312.312,0,0,0,.12-.312l-.216-1.9a.259.259,0,0,0-.072-.168.243.243,0,0,0-.168-.1,2.591,2.591,0,0,0-.5-.12q-.324-.072-.72-.144a9.743,9.743,0,0,0-1.607-.144,4.588,4.588,0,0,0-2.687.7,2.356,2.356,0,0,0-.96,2.063,2.2,2.2,0,0,0,.792,1.8,6.167,6.167,0,0,0,2.591.984,4.177,4.177,0,0,1,1.272.36.3.3,0,0,1,.168.24c0,.144-.1.264-.288.336a2.289,2.289,0,0,1-.792.12,5.519,5.519,0,0,1-1.751-.312,14.753,14.753,0,0,1-1.464-.6.334.334,0,0,0-.336.024.3.3,0,0,0-.12.312l.168,2.039c0,.072.048.12.1.192a.243.243,0,0,0,.168.1,2.556,2.556,0,0,0,.336.072c.144.024.336.072.528.1h0a.408.408,0,0,0,.168.024c.048,0,.12.024.192.024.312.048.624.1.936.12s.624.048.936.048a6.219,6.219,0,0,0,1.583-.192,3.46,3.46,0,0,0,1.2-.552,2.211,2.211,0,0,0,.744-.888,2.864,2.864,0,0,0,.264-1.224,2.4,2.4,0,0,0-.72-1.8" transform="translate(384.765 1929.279)"/>
    <path id="Path_11" data-name="Path 11" class="cls-7" d="M440.7,51.928a4.973,4.973,0,0,0-6.982.672L424.6,63.708l.84.912a54.163,54.163,0,0,1,4.367,5.494l1.08,1.559,10.485-12.788a4.967,4.967,0,0,0-.672-6.958" transform="translate(285.271 2022.388)"/>
    <path id="Path_12" data-name="Path 12" class="cls-7" d="M355.2,220.324v0" transform="translate(338.021 1893.555)"/>
    <path id="Path_13" data-name="Path 13" class="cls-7" d="M353.948,216.044c-.024-.048-.024-.1-.048-.144.024.048.024.1.048.144" transform="translate(339.009 1896.899)"/>
    <path id="Path_14" data-name="Path 14" class="cls-7" d="M356.248,224.868c-.024-.048-.024-.12-.048-.168a.346.346,0,0,1,.048.168" transform="translate(337.261 1890.211)"/>
    <path id="Path_15" data-name="Path 15" class="cls-7" d="M357.9,234.272v0" transform="translate(335.969 1882.99)"/>
    <path id="Path_16" data-name="Path 16" class="cls-7" d="M358.324,239.412a1.474,1.474,0,0,0-.024-.312,1.366,1.366,0,0,1,.024.312" transform="translate(335.664 1879.266)"/>
    <path id="Path_17" data-name="Path 17" class="cls-7" d="M357.148,229.164c-.024-.1-.024-.168-.048-.264.024.1.024.192.048.264" transform="translate(336.577 1887.018)"/>
    <path id="Path_18" data-name="Path 18" class="cls-7" d="M358.6,244v0" transform="translate(335.436 1875.541)"/>
    <path id="Path_19" data-name="Path 19" class="cls-8" d="M205.743,218.823c-.312-.816-.7-1.631-1.08-2.423l-6.694,8.157-18.81,22.937a4.892,4.892,0,0,1-3.647,1.8h-.192a4.9,4.9,0,0,1-3.575-1.535l-23.3-24.472a4.821,4.821,0,0,1-.84-1.224,4.692,4.692,0,0,0-.312,1.631,5.019,5.019,0,0,0,1.368,3.575L172.225,252a5.028,5.028,0,0,0,3.623,1.56h.192a5.016,5.016,0,0,0,3.695-1.823l19.026-23.177,7.342-8.949Z" transform="translate(496.043 1896.519)"/>
    <path id="Path_20" data-name="Path 20" class="cls-8" d="M358,235.6c-.024-.384-.048-.744-.1-1.1.048.36.072.744.1,1.1" transform="translate(335.969 1882.762)"/>
    <path id="Path_21" data-name="Path 21" class="cls-8" d="M358.524,241.264c0-.288-.024-.576-.024-.864,0,.288,0,.576.024.864" transform="translate(335.512 1878.277)"/>
    <path id="Path_22" data-name="Path 22" class="cls-8" d="M357.444,231.084c-.048-.336-.1-.672-.144-.984.048.312.1.648.144.984" transform="translate(336.425 1886.106)"/>
    <path id="Path_23" data-name="Path 23" class="cls-8" d="M352.988,213.088c-.1-.312-.192-.6-.288-.888.1.288.192.576.288.888" transform="translate(339.921 1899.712)"/>
    <path id="Path_24" data-name="Path 24" class="cls-8" d="M356.568,226.24c-.048-.288-.1-.576-.168-.84.072.264.12.552.168.84" transform="translate(337.109 1889.679)"/>
    <path id="Path_25" data-name="Path 25" class="cls-8" d="M354.364,217.412c-.1-.312-.168-.624-.264-.912.1.288.168.6.264.912" transform="translate(338.857 1896.443)"/>
    <path id="Path_26" data-name="Path 26" class="cls-8" d="M355.54,221.508c-.072-.336-.168-.672-.24-1.008.072.312.144.648.24,1.008" transform="translate(337.945 1893.403)"/>
    <path id="Path_27" data-name="Path 27" class="cls-8" d="M358.524,245.4c0,.384,0,.792-.024,1.2.024-.408.024-.816.024-1.2" transform="translate(335.512 1874.477)"/>
    <path id="Path_28" data-name="Path 28" class="cls-9" d="M356.717,183.141a32.9,32.9,0,0,0-3.767-7.006l-1.08-1.536L347,180.526a22.507,22.507,0,0,1,1.344,3.1h0c.1.288.192.576.288.888.024.048.024.1.048.144.1.288.192.6.264.912v.024c.1.336.168.672.24,1.008.024.048.024.12.048.168.048.288.12.552.168.84.024.1.024.168.048.264.048.336.1.648.144.984v.072c.048.36.072.72.1,1.1a1.476,1.476,0,0,0,.024.312c.024.288.024.576.024.864v.336c0,.384,0,.792-.024,1.2l6.694-8.157.576-.7Z" transform="translate(344.253 1928.291)"/>
    <path id="Path_29" data-name="Path 29" class="cls-10" d="M195.966,202.4a25.888,25.888,0,0,0-1.344-3.1l-20.154,24.592-19.434-20.417a4.952,4.952,0,0,0-3.6-1.536,4.955,4.955,0,0,0-4.942,4.822,5.15,5.15,0,0,0,.5,2.327,5.847,5.847,0,0,0,.84,1.224l23.3,24.472a4.938,4.938,0,0,0,3.575,1.536h.192a4.974,4.974,0,0,0,3.647-1.8l18.81-22.937a23.832,23.832,0,0,0-1.392-9.189" transform="translate(496.655 1909.517)"/>
    <path id="Path_30" data-name="Path 30" class="cls-11" d="M139.028,85c.1-1.08.168-2.159.192-3.263a1.909,1.909,0,0,0,1.056-1.7V79.99a56.739,56.739,0,0,0-.408-6.718,1.922,1.922,0,0,0-1.248-1.56c-.168-1.08-.36-2.135-.576-3.191a1.854,1.854,0,0,0,.624-1.919,56.166,56.166,0,0,0-2.015-6.478,1.937,1.937,0,0,0-1.607-1.224c-.408-1.008-.864-1.991-1.32-2.951a1.96,1.96,0,0,0,.168-2.015,59.172,59.172,0,0,0-3.5-5.806,1.894,1.894,0,0,0-1.871-.792c-.648-.864-1.3-1.7-1.991-2.543a1.9,1.9,0,0,0-.336-2.015,53.277,53.277,0,0,0-4.8-4.8,1.945,1.945,0,0,0-2.015-.336c-.816-.7-1.679-1.344-2.543-1.991a1.894,1.894,0,0,0-.792-1.871,55.032,55.032,0,0,0-5.806-3.527,1.906,1.906,0,0,0-2.015.144c-.96-.48-1.943-.912-2.951-1.344a1.9,1.9,0,0,0-1.224-1.607,56.169,56.169,0,0,0-6.478-2.015,1.916,1.916,0,0,0-1.919.624c-1.056-.216-2.135-.432-3.215-.6a1.844,1.844,0,0,0-1.559-1.248A57.865,57.865,0,0,0,84.11,23.8h0a1.909,1.909,0,0,0-1.7,1.056c-1.1.024-2.183.1-3.263.192a1.908,1.908,0,0,0-1.823-.84,56.232,56.232,0,0,0-6.67,1.2,1.923,1.923,0,0,0-1.416,1.44c-1.056.288-2.087.624-3.119.96a1.89,1.89,0,0,0-1.967-.384,53.019,53.019,0,0,0-6.19,2.783,1.886,1.886,0,0,0-1.008,1.751c-.936.528-1.871,1.08-2.783,1.679a1.913,1.913,0,0,0-2.015.1,59.365,59.365,0,0,0-5.35,4.175,1.893,1.893,0,0,0-.576,1.943c-.792.744-1.536,1.488-2.279,2.279A1.929,1.929,0,0,0,42,42.682a56.1,56.1,0,0,0-4.2,5.326,1.915,1.915,0,0,0-.1,2.015c-.576.912-1.152,1.823-1.679,2.759a1.91,1.91,0,0,0-1.751,1.008,57.5,57.5,0,0,0-2.807,6.19,1.89,1.89,0,0,0,.384,1.967c-.36,1.032-.672,2.063-.984,3.1a1.858,1.858,0,0,0-1.44,1.392,52.577,52.577,0,0,0-1.224,6.67,1.908,1.908,0,0,0,.84,1.823c-.1,1.08-.168,2.159-.192,3.263a1.909,1.909,0,0,0-1.056,1.7v.1a57.866,57.866,0,0,0,.408,6.766,1.89,1.89,0,0,0,1.248,1.559c.168,1.08.36,2.135.6,3.191a1.9,1.9,0,0,0-.624,1.919A56.17,56.17,0,0,0,31.447,99.9a1.937,1.937,0,0,0,1.607,1.224c.408,1.008.864,1.991,1.344,2.951a1.906,1.906,0,0,0-.144,2.015,55.031,55.031,0,0,0,3.527,5.806,1.935,1.935,0,0,0,1.583.816,1.167,1.167,0,0,0,.288-.024c.648.864,1.3,1.7,1.991,2.543a1.9,1.9,0,0,0,.336,1.991,56.6,56.6,0,0,0,4.8,4.8,1.951,1.951,0,0,0,1.272.48,2.047,2.047,0,0,0,.744-.144c.816.7,1.679,1.344,2.543,1.991a1.941,1.941,0,0,0,.792,1.871,55.038,55.038,0,0,0,5.806,3.527,2.014,2.014,0,0,0,.888.216,2.1,2.1,0,0,0,1.128-.36c.96.48,1.943.912,2.951,1.344a1.9,1.9,0,0,0,1.224,1.607,56.168,56.168,0,0,0,6.478,2.015,1.476,1.476,0,0,0,.456.048,1.962,1.962,0,0,0,1.464-.672c1.056.216,2.135.432,3.191.6a1.882,1.882,0,0,0,1.56,1.248,57.865,57.865,0,0,0,6.766.408,1.909,1.909,0,0,0,1.7-1.056c1.1-.024,2.183-.1,3.263-.192a1.885,1.885,0,0,0,1.583.864.9.9,0,0,0,.24-.024,52.581,52.581,0,0,0,6.67-1.224,1.923,1.923,0,0,0,1.416-1.44c1.056-.288,2.087-.624,3.1-.96a1.874,1.874,0,0,0,1.3.5,2.2,2.2,0,0,0,.672-.12,53.017,53.017,0,0,0,6.19-2.783,1.91,1.91,0,0,0,1.008-1.751c.936-.528,1.871-1.08,2.759-1.679a1.837,1.837,0,0,0,.936.264,1.974,1.974,0,0,0,1.08-.336,59.37,59.37,0,0,0,5.35-4.175,1.893,1.893,0,0,0,.576-1.943c.792-.744,1.536-1.512,2.279-2.279a1.871,1.871,0,0,0,.528.072,1.918,1.918,0,0,0,1.44-.648,56.1,56.1,0,0,0,4.2-5.326,1.915,1.915,0,0,0,.1-2.015c.576-.912,1.152-1.823,1.679-2.759h.048a1.906,1.906,0,0,0,1.7-1.032,53.019,53.019,0,0,0,2.783-6.19,1.89,1.89,0,0,0-.384-1.967c.36-1.032.672-2.063.96-3.1a1.852,1.852,0,0,0,1.44-1.416,57.193,57.193,0,0,0,1.224-6.67,1.908,1.908,0,0,0-.84-1.823M84.062,114.227A34.237,34.237,0,1,1,118.3,79.99a34.24,34.24,0,0,1-34.237,34.237" transform="translate(586.87 2042.91)"/>
    <path id="Path_31" data-name="Path 31" class="cls-12" d="M153.837,115.4a34.237,34.237,0,1,0,34.237,34.237A34.24,34.24,0,0,0,153.837,115.4M182.6,138.481a31.036,31.036,0,1,1-3.623-6.694,31.635,31.635,0,0,1,3.623,6.694" transform="translate(517.095 1973.287)"/>
    <path id="Path_32" data-name="Path 32" class="cls-3" d="M117.826,299.005A45.273,45.273,0,0,1,72.6,253.779a1.679,1.679,0,1,1,3.359,0,41.867,41.867,0,1,0,83.733,0,1.679,1.679,0,1,1,3.359,0,45.258,45.258,0,0,1-45.226,45.226" transform="translate(552.818 1869.385)"/>
    <path id="Path_33" data-name="Path 33" class="cls-3" d="M60.181,198.012a4.784,4.784,0,0,1,2.231-3.047,5.013,5.013,0,0,1,6.6,1.9,4.711,4.711,0,0,1,.336,3.719l-1.464,5.158a.549.549,0,0,1-.168.24.266.266,0,0,1-.264.024l-8.493-2.4a.383.383,0,0,1-.216-.168.309.309,0,0,1-.024-.288Zm3.551-.192a1.59,1.59,0,0,0-.792,1.08l-.576,2.063,3.6,1.008L66.515,200a1.767,1.767,0,0,0-.1-1.416,1.892,1.892,0,0,0-1.224-.816,2.137,2.137,0,0,0-1.464.048" transform="translate(563.39 1913.252)"/>
    <path id="Path_34" data-name="Path 34" class="cls-3" d="M84.175,163.135a.305.305,0,0,1-.216.168.4.4,0,0,1-.288-.024l-7.654-4.391a.305.305,0,0,1-.168-.216.4.4,0,0,1,.024-.288l3.527-6.166a.305.305,0,0,1,.216-.168.33.33,0,0,1,.264.024l1.536.888a.3.3,0,0,1,.168.24.33.33,0,0,1-.024.264l-2.039,3.551.84.48,1.727-3.023a.305.305,0,0,1,.216-.168.4.4,0,0,1,.288.024l1.512.864a.3.3,0,0,1,.168.24.4.4,0,0,1-.024.288l-1.727,3.047.888.5,2.207-3.839a.305.305,0,0,1,.216-.168.413.413,0,0,1,.288.048l1.536.888a.383.383,0,0,1,.168.216.4.4,0,0,1-.024.288Z" transform="translate(550.36 1945.442)"/>
    <path id="Path_35" data-name="Path 35" class="cls-3" d="M120.482,117.557a.361.361,0,0,1-.264.1.3.3,0,0,1-.24-.12l-5.782-6.646a.361.361,0,0,1-.1-.264.3.3,0,0,1,.12-.24l3.719-3.239a3.385,3.385,0,0,1,.984-.624,3.085,3.085,0,0,1,1.008-.24,2.181,2.181,0,0,1,.984.144,2.309,2.309,0,0,1,1.368,1.655,2.214,2.214,0,0,1-.144,1.224,2.534,2.534,0,0,1,1.152-.144,2.7,2.7,0,0,1,1.655.96,2.45,2.45,0,0,1,.6,2.111,3.631,3.631,0,0,1-1.272,2.063Zm-2.663-7.438,1.008,1.152.552-.48a1.122,1.122,0,0,0,.408-.672.658.658,0,0,0-.12-.576.711.711,0,0,0-.576-.24,1.192,1.192,0,0,0-.72.312Zm2.207,2.543,1.2,1.368.624-.552a1.426,1.426,0,0,0,.48-.744.73.73,0,0,0-.168-.7.85.85,0,0,0-.672-.312,1.312,1.312,0,0,0-.792.36Z" transform="translate(521.275 1980.223)"/>
    <path id="Path_36" data-name="Path 36" class="cls-3" d="M156.181,90.73a.39.39,0,0,1-.288.024.383.383,0,0,1-.216-.168l-4.1-7.8a.39.39,0,0,1-.024-.288.383.383,0,0,1,.168-.216L158,78.974a.391.391,0,0,1,.288-.024.383.383,0,0,1,.216.168l.816,1.583a.4.4,0,0,1,.024.288.383.383,0,0,1-.168.216l-3.623,1.9.456.864,3.1-1.631a.39.39,0,0,1,.288-.024.383.383,0,0,1,.216.168l.816,1.559a.4.4,0,0,1,.024.288.383.383,0,0,1-.168.216l-3.1,1.631.48.912,3.911-2.063a.4.4,0,0,1,.288-.024.341.341,0,0,1,.216.192l.84,1.583a.349.349,0,0,1-.168.48Z" transform="translate(492.822 2001.004)"/>
    <path id="Path_37" data-name="Path 37" class="cls-3" d="M204.636,73.868a2.928,2.928,0,0,1-.576,1.2,3.783,3.783,0,0,1-1.152.936,7.211,7.211,0,0,1-1.679.648,7.893,7.893,0,0,1-1.032.216c-.36.072-.7.1-1.056.144a.664.664,0,0,0-.216.024.528.528,0,0,0-.192.024v.024c-.24.024-.432.024-.624.048-.168,0-.312.024-.384.024a.387.387,0,0,1-.216-.072.322.322,0,0,1-.144-.168l-.768-2.183a.369.369,0,0,1,.048-.384.4.4,0,0,1,.36-.12,16.072,16.072,0,0,0,1.775.24,6.643,6.643,0,0,0,2.015-.144,2.364,2.364,0,0,0,.816-.36c.192-.144.264-.288.216-.456-.024-.1-.1-.168-.264-.216a5.108,5.108,0,0,0-1.488-.048,6.736,6.736,0,0,1-3.1-.336,2.469,2.469,0,0,1-1.368-1.751,2.656,2.656,0,0,1,.48-2.519A5.177,5.177,0,0,1,198.83,67.1a10.08,10.08,0,0,1,1.8-.288c.312-.024.6-.048.816-.048a4.962,4.962,0,0,1,.6,0,.272.272,0,0,1,.192.072.323.323,0,0,1,.144.168L203.148,69a.369.369,0,0,1-.048.384.345.345,0,0,1-.36.12c-.264-.048-.552-.1-.84-.12s-.6-.048-.912-.072a5.593,5.593,0,0,0-1.632.168,3.527,3.527,0,0,0-.792.288.343.343,0,0,0-.216.36c.024.12.168.192.384.216a6.3,6.3,0,0,0,.72.024c.288,0,.6,0,.984-.024a5.338,5.338,0,0,1,2.9.408,2.682,2.682,0,0,1,1.3,1.727,3.872,3.872,0,0,1,0,1.392" transform="translate(459.41 2010.261)"/>
    <path id="Path_38" data-name="Path 38" class="cls-3" d="M233.115,71.385a.361.361,0,0,1-.264-.1.333.333,0,0,1-.12-.24l-.432-6.766-2.519.168a.361.361,0,0,1-.264-.1.344.344,0,0,1-.12-.264l-.1-1.655a.361.361,0,0,1,.1-.264.344.344,0,0,1,.264-.12l8.4-.552a.361.361,0,0,1,.264.1.333.333,0,0,1,.12.24l.1,1.655a.361.361,0,0,1-.1.264.344.344,0,0,1-.264.12l-2.5.168.432,6.766a.361.361,0,0,1-.1.264.344.344,0,0,1-.264.12Z" transform="translate(433.714 2014.255)"/>
    <path id="Path_39" data-name="Path 39" class="cls-3" d="M268.483,71.624a.5.5,0,0,1-.24-.144.271.271,0,0,1-.072-.264l1.248-8.733a.5.5,0,0,1,.144-.24.271.271,0,0,1,.264-.072l7.03,1.008a.5.5,0,0,1,.24.144.271.271,0,0,1,.072.264l-.264,1.751a.408.408,0,0,1-.144.24.271.271,0,0,1-.264.072l-4.055-.576-.144.96,3.455.5a.5.5,0,0,1,.24.144.271.271,0,0,1,.072.264l-.24,1.727a.408.408,0,0,1-.144.24.271.271,0,0,1-.264.072l-3.455-.48-.144,1.008,4.367.624a.408.408,0,0,1,.24.144.512.512,0,0,1,.072.288l-.264,1.751a.5.5,0,0,1-.144.24.271.271,0,0,1-.264.072Z" transform="translate(404.176 2013.752)"/>
    <path id="Path_40" data-name="Path 40" class="cls-3" d="M322.818,86.519a.3.3,0,0,1-.168-.216.4.4,0,0,1,.024-.288l4.127-7.8a.305.305,0,0,1,.216-.168.4.4,0,0,1,.288.024l4.343,2.3a3.61,3.61,0,0,1,.936.672,2.95,2.95,0,0,1,.6.864,2.429,2.429,0,0,1,.216.984,1.817,1.817,0,0,1-.264.96,2.513,2.513,0,0,1-.816.912,2.129,2.129,0,0,1-1.2.312,2.491,2.491,0,0,1,.552,1.008,2.741,2.741,0,0,1-.312,1.9,2.4,2.4,0,0,1-1.751,1.32,3.509,3.509,0,0,1-2.375-.456Zm4.415-2.207-.84,1.607.744.384a1.3,1.3,0,0,0,.864.168.777.777,0,0,0,.6-.408.818.818,0,0,0,.048-.744,1.268,1.268,0,0,0-.624-.6Zm1.559-2.975-.72,1.344.648.336a1.135,1.135,0,0,0,.768.144.688.688,0,0,0,.5-.312.8.8,0,0,0,.024-.624,1.116,1.116,0,0,0-.552-.552Z" transform="translate(362.773 2001.688)"/>
    <path id="Path_41" data-name="Path 41" class="cls-3" d="M359.443,122a.386.386,0,0,1-.1-.168.263.263,0,0,1,0-.192l.336-1.3-3.407-3.1-1.272.48a.331.331,0,0,1-.216,0,.482.482,0,0,1-.192-.1l-1.871-1.679a.4.4,0,0,1-.144-.36.332.332,0,0,1,.264-.264l9.6-3.191a.263.263,0,0,1,.192,0,.573.573,0,0,1,.168.072l1.607,1.44a.386.386,0,0,1,.1.168.333.333,0,0,1,0,.216l-2.375,9.693a.422.422,0,0,1-.24.288.357.357,0,0,1-.36-.1Zm-.864-5.542,1.679,1.512.6-2.3Z" transform="translate(340.016 1975.776)"/>
    <path id="Path_42" data-name="Path 42" class="cls-3" d="M399.288,150.524c-.144.36-.288.72-.456,1.08l3.815-2.327a.372.372,0,0,1,.288-.048.406.406,0,0,1,.24.168l1.248,2.015a.413.413,0,0,1,.048.288.305.305,0,0,1-.168.216l-7.534,4.631a.393.393,0,0,1-.288.048.406.406,0,0,1-.24-.168l-1.416-2.327a.28.28,0,0,1-.048-.168.355.355,0,0,1,.024-.168l2.159-5.35-3.767,2.3a.393.393,0,0,1-.288.048.406.406,0,0,1-.24-.168l-1.248-2.015a.333.333,0,0,1-.048-.264.305.305,0,0,1,.168-.216l7.534-4.583a.333.333,0,0,1,.264-.048.305.305,0,0,1,.216.168l1.416,2.3a.346.346,0,0,1,.048.168.356.356,0,0,1-.024.168c-.24.552-.456,1.1-.672,1.631s-.432,1.056-.648,1.607c-.1.288-.24.648-.384,1.008" transform="translate(310.536 1951.959)"/>
    <path id="Path_43" data-name="Path 43" class="cls-3" d="M424.279,194.7a4.819,4.819,0,0,1-.288,3.767,4.712,4.712,0,0,1-2.927,2.255,4.608,4.608,0,0,1-3.671-.36,4.811,4.811,0,0,1-2.255-2.975l-1.488-5.158a.4.4,0,0,1,.024-.288.305.305,0,0,1,.216-.168l8.469-2.423a.4.4,0,0,1,.288.024.305.305,0,0,1,.168.216Zm-2.927,2.039a1.686,1.686,0,0,0,.12-1.344l-.6-2.063-3.6,1.032.576,1.967a1.852,1.852,0,0,0,.816,1.152,2,2,0,0,0,1.464.048,1.962,1.962,0,0,0,1.224-.792" transform="translate(293.606 1917.091)"/>
    <path id="Path_44" data-name="Path 44" class="cls-13" d="M193.065,238.492a.562.562,0,0,1-.408-.168l-19.434-20.633a.543.543,0,1,1,.792-.744l19.434,20.633a.536.536,0,0,1-.024.768.453.453,0,0,1-.36.144" transform="translate(476.451 1896.236)"/>
    <path id="Path_45" data-name="Path 45" class="cls-9" d="M271.226,243.7a.714.714,0,0,1-.36-.12.538.538,0,0,1-.072-.768l25.1-30.542a.545.545,0,1,1,.84.7L271.658,243.5a.6.6,0,0,1-.432.192" transform="translate(402.273 1899.813)"/>
  </g>
</svg>
