<svg xmlns="http://www.w3.org/2000/svg" viewBox="5844.696 335.445 525.304 376.426">
  <defs>
    <style>
      .cls-1 {
        opacity: 0.1;
      }

      .cls-2 {
        fill: #2a2a2a;
      }

      .cls-3 {
        fill: #4d4d4d;
      }

      .cls-4 {
        fill: #8fa6ae;
      }

      .cls-18, .cls-19, .cls-23, .cls-5, .cls-8 {
        fill: #fff;
      }

      .cls-5 {
        opacity: 0.2;
      }

      .cls-6 {
        opacity: 0.15;
      }

      .cls-7 {
        fill: #aaa;
      }

      .cls-8 {
        opacity: 0.5;
      }

      .cls-9 {
        fill: #af4141;
      }

      .cls-10 {
        fill: #b24647;
      }

      .cls-11 {
        fill: #1d1d1d;
      }

      .cls-12 {
        fill: #e4df1a;
      }

      .cls-13 {
        fill: #ec1e24;
      }

      .cls-14 {
        fill: #ed3268;
      }

      .cls-15 {
        fill: #f27f98;
      }

      .cls-16 {
        fill: #bbbdbf;
      }

      .cls-17 {
        fill: #424143;
      }

      .cls-18 {
        opacity: 0.46;
      }

      .cls-19 {
        opacity: 0.3;
      }

      .cls-20 {
        fill: #f7941e;
      }

      .cls-21 {
        fill: #231f20;
      }

      .cls-22 {
        fill: #145182;
      }

      .cls-24 {
        fill: #1c75bc;
      }

      .cls-25 {
        fill: none;
        stroke: #231f20;
        stroke-miterlimit: 10;
        stroke-width: 4px;
      }

      .cls-26 {
        fill: #be1e2d;
      }

      .cls-27 {
        fill: #999898;
      }

      .cls-28 {
        fill: #262626;
      }

      .cls-29 {
        fill: #b7b7b7;
      }
    </style>
  </defs>
  <g id="Group_16" data-name="Group 16" transform="translate(5844.696 335.461)">
    <g id="Group_8" data-name="Group 8" transform="translate(0 155.968)">
      <path id="Path_49" data-name="Path 49" class="cls-1" d="M512.528,533.289l-20.459,48.059a21.367,21.367,0,0,1-19.649,12.964H41.107a21.42,21.42,0,0,1-19.649-12.964L1.1,533.289l17.775-12.1H127.147l55.6-14.686H333.46l55.6,14.686H494.8Z" transform="translate(-0.543 -405.977)"/>
      <path id="Path_50" data-name="Path 50" class="cls-1" d="M249.958,679.3c-2.481,18.028-22.029,32.107-45.729,32.107S160.981,697.328,158.5,679.3Z" transform="translate(-78.233 -491.268)"/>
      <path id="Path_51" data-name="Path 51" class="cls-1" d="M768.158,679.9c-2.481,18.028-22.029,32.107-45.729,32.107S679.181,697.928,676.7,679.9Z" transform="translate(-334.009 -491.564)"/>
      <g id="Group_3" data-name="Group 3" transform="translate(78.697 129.541)">
        <g id="Group_2" data-name="Group 2">
          <g id="Group_1" data-name="Group 1">
            <path id="Path_52" data-name="Path 52" class="cls-2" d="M156.413,612.416a22.087,22.087,0,0,1-.152-2.583,1.525,1.525,0,0,1-.861-1.367v-.051a37.025,37.025,0,0,1,.354-5.317,1.527,1.527,0,0,1,1.063-1.266c.152-.861.3-1.722.506-2.532a1.455,1.455,0,0,1-.506-1.519,47.194,47.194,0,0,1,1.671-5.165,1.561,1.561,0,0,1,1.367-.962c.354-.81.709-1.57,1.114-2.33a1.552,1.552,0,0,1-.152-1.621,44.235,44.235,0,0,1,2.937-4.608,1.694,1.694,0,0,1,1.57-.658A20.849,20.849,0,0,1,167,580.41a1.485,1.485,0,0,1,.253-1.62,47.266,47.266,0,0,1,4-3.8,1.662,1.662,0,0,1,1.671-.253c.709-.557,1.367-1.063,2.127-1.57a1.435,1.435,0,0,1,.658-1.469,45.612,45.612,0,0,1,4.811-2.785,1.766,1.766,0,0,1,1.671.1c.81-.354,1.621-.709,2.481-1.063a1.457,1.457,0,0,1,1.013-1.266,50.3,50.3,0,0,1,5.368-1.621,1.5,1.5,0,0,1,1.57.506,22.816,22.816,0,0,1,2.684-.456,1.644,1.644,0,0,1,1.317-1.013,52.243,52.243,0,0,1,5.621-.3h0a1.6,1.6,0,0,1,1.418.861c.912.051,1.823.1,2.684.152a1.564,1.564,0,0,1,1.519-.658,51.177,51.177,0,0,1,5.571.962,1.523,1.523,0,0,1,1.165,1.165l2.583.76a1.566,1.566,0,0,1,1.621-.3,46.718,46.718,0,0,1,5.165,2.228,1.547,1.547,0,0,1,.861,1.367c.76.405,1.57.861,2.33,1.317a1.778,1.778,0,0,1,1.671.051,46.468,46.468,0,0,1,4.456,3.342,1.54,1.54,0,0,1,.456,1.57c.658.608,1.266,1.165,1.924,1.823a1.626,1.626,0,0,1,1.621.456,39.977,39.977,0,0,1,3.494,4.254,1.562,1.562,0,0,1,.1,1.621c.506.709.962,1.469,1.418,2.178a1.6,1.6,0,0,1,1.469.81,43.557,43.557,0,0,1,2.33,4.912,1.588,1.588,0,0,1-.3,1.57c.3.81.557,1.621.81,2.481a1.6,1.6,0,0,1,1.215,1.114,37.875,37.875,0,0,1,1.013,5.317,1.564,1.564,0,0,1-.709,1.469,22.085,22.085,0,0,1,.152,2.583,1.525,1.525,0,0,1,.861,1.367v.1a38.231,38.231,0,0,1-.354,5.368,1.527,1.527,0,0,1-1.063,1.266c-.152.861-.3,1.722-.506,2.532a1.455,1.455,0,0,1,.506,1.519,47.2,47.2,0,0,1-1.671,5.165,1.55,1.55,0,0,1-1.317.962c-.355.81-.709,1.57-1.114,2.33a1.552,1.552,0,0,1,.152,1.621,44.243,44.243,0,0,1-2.937,4.608,1.68,1.68,0,0,1-1.317.658h-.253a20.84,20.84,0,0,1-1.671,2.026,1.484,1.484,0,0,1-.253,1.57,47.261,47.261,0,0,1-4,3.8,1.634,1.634,0,0,1-1.063.405,2.541,2.541,0,0,1-.608-.1c-.709.557-1.367,1.063-2.127,1.57a1.473,1.473,0,0,1-.658,1.469,45.619,45.619,0,0,1-4.811,2.785,2.033,2.033,0,0,1-.76.152,1.667,1.667,0,0,1-.962-.3l-2.431,1.063A1.457,1.457,0,0,1,218.9,650.4a50.3,50.3,0,0,1-5.368,1.621,1.116,1.116,0,0,1-.405.051,1.618,1.618,0,0,1-1.215-.557,22.816,22.816,0,0,1-2.684.456,1.644,1.644,0,0,1-1.317,1.013,52.243,52.243,0,0,1-5.621.3,1.6,1.6,0,0,1-1.418-.861c-.912-.051-1.823-.1-2.684-.152a1.653,1.653,0,0,1-1.317.709h-.2a51.193,51.193,0,0,1-5.571-.962,1.523,1.523,0,0,1-1.165-1.165l-2.583-.76a1.634,1.634,0,0,1-1.063.405,2.153,2.153,0,0,1-.557-.1,46.717,46.717,0,0,1-5.165-2.228,1.547,1.547,0,0,1-.861-1.367c-.76-.405-1.57-.861-2.279-1.317a1.429,1.429,0,0,1-.76.2,2.064,2.064,0,0,1-.912-.253,46.458,46.458,0,0,1-4.456-3.342,1.54,1.54,0,0,1-.456-1.57c-.658-.608-1.266-1.215-1.924-1.823a1.258,1.258,0,0,1-.405.051,1.467,1.467,0,0,1-1.165-.506,45.791,45.791,0,0,1-3.494-4.254,1.455,1.455,0,0,1-.051-1.621c-.506-.709-.962-1.469-1.418-2.178h-.051a1.678,1.678,0,0,1-1.418-.81,43.557,43.557,0,0,1-2.33-4.912,1.588,1.588,0,0,1,.3-1.57c-.3-.81-.557-1.621-.81-2.481a1.6,1.6,0,0,1-1.215-1.114,37.873,37.873,0,0,1-1.013-5.317A1.244,1.244,0,0,1,156.413,612.416Zm45.679,23.245c15.7,0,28.461-12.154,28.461-27.195s-12.762-27.194-28.461-27.194-28.46,12.154-28.46,27.194C173.631,623.456,186.393,635.66,202.091,635.66Z" transform="translate(-155.4 -563.8)"/>
            <path id="Path_53" data-name="Path 53" class="cls-3" d="M219.861,598.3c15.7,0,28.461,12.154,28.461,27.194s-12.762,27.195-28.461,27.195-28.46-12.154-28.46-27.195S204.162,598.3,219.861,598.3Zm-23.9,18.332a23.416,23.416,0,0,0-1.722,8.862c0,13.521,11.5,24.51,25.625,24.51s25.625-10.989,25.625-24.51-11.5-24.51-25.625-24.51a26.093,26.093,0,0,0-20.915,10.331A22.808,22.808,0,0,0,195.958,616.632Z" transform="translate(-173.169 -580.829)"/>
            <ellipse id="Ellipse_1" data-name="Ellipse 1" class="cls-4" cx="25.979" cy="24.814" rx="25.979" ry="24.814" transform="translate(20.662 20.054)"/>
          </g>
        </g>
        <path id="Path_54" data-name="Path 54" class="cls-5" d="M252.441,642.308a16.225,16.225,0,0,1-3.646,2.532A14.6,14.6,0,0,0,229.5,624.077a17.679,17.679,0,0,1,2.785-3.444c6.28-5.824,15.851-5.672,21.421.3C259.328,626.913,258.72,636.484,252.441,642.308Z" transform="translate(-191.975 -589.742)"/>
      </g>
      <g id="Group_6" data-name="Group 6" transform="translate(341.83 130.604)">
        <g id="Group_5" data-name="Group 5">
          <g id="Group_4" data-name="Group 4">
            <path id="Path_55" data-name="Path 55" class="cls-2" d="M676.013,614.364a22.078,22.078,0,0,1-.152-2.583,1.525,1.525,0,0,1-.861-1.367v-.051a37.522,37.522,0,0,1,.354-5.317,1.527,1.527,0,0,1,1.063-1.266c.152-.861.3-1.671.506-2.532a1.455,1.455,0,0,1-.506-1.519,46.386,46.386,0,0,1,1.671-5.115,1.55,1.55,0,0,1,1.317-.962c.354-.81.709-1.57,1.114-2.33a1.552,1.552,0,0,1-.152-1.62,43.765,43.765,0,0,1,2.887-4.608,1.559,1.559,0,0,1,1.57-.608,20.833,20.833,0,0,1,1.671-2.026,1.39,1.39,0,0,1,.253-1.57,46.649,46.649,0,0,1,3.95-3.8,1.661,1.661,0,0,1,1.671-.253c.709-.557,1.367-1.063,2.127-1.57a1.473,1.473,0,0,1,.658-1.469,41,41,0,0,1,4.811-2.785,1.766,1.766,0,0,1,1.671.1l2.431-1.063a1.457,1.457,0,0,1,1.013-1.266,50.288,50.288,0,0,1,5.368-1.62,1.5,1.5,0,0,1,1.57.506,23.881,23.881,0,0,1,2.633-.456,1.644,1.644,0,0,1,1.317-1.013,52.259,52.259,0,0,1,5.621-.3h0a1.661,1.661,0,0,1,1.418.81c.912.051,1.823.1,2.684.152a1.564,1.564,0,0,1,1.519-.658,48.274,48.274,0,0,1,5.52.962,1.6,1.6,0,0,1,1.165,1.165l2.583.76a1.682,1.682,0,0,1,1.62-.3,41.935,41.935,0,0,1,5.115,2.178,1.492,1.492,0,0,1,.861,1.367c.76.405,1.57.861,2.279,1.317a1.778,1.778,0,0,1,1.671.051c1.519,1.013,3.038,2.127,4.456,3.292a1.485,1.485,0,0,1,.456,1.519c.658.608,1.266,1.165,1.874,1.823a1.626,1.626,0,0,1,1.621.456,39.441,39.441,0,0,1,3.494,4.2,1.455,1.455,0,0,1,.051,1.621c.506.709.962,1.469,1.418,2.178a1.6,1.6,0,0,1,1.469.81,43.565,43.565,0,0,1,2.33,4.912,1.588,1.588,0,0,1-.3,1.57c.3.81.557,1.621.81,2.431a1.6,1.6,0,0,1,1.215,1.114,37.185,37.185,0,0,1,1.013,5.267,1.44,1.44,0,0,1-.709,1.418,22.093,22.093,0,0,1,.152,2.583,1.525,1.525,0,0,1,.861,1.367v.1a38.234,38.234,0,0,1-.354,5.368A1.527,1.527,0,0,1,766.813,617c-.152.861-.3,1.722-.506,2.532a1.425,1.425,0,0,1,.506,1.519,46.386,46.386,0,0,1-1.671,5.115,1.55,1.55,0,0,1-1.317.962c-.354.81-.709,1.57-1.114,2.33a1.552,1.552,0,0,1,.152,1.62,44.236,44.236,0,0,1-2.937,4.608,1.68,1.68,0,0,1-1.317.658h-.253a20.834,20.834,0,0,1-1.671,2.026,1.5,1.5,0,0,1-.253,1.57,40.678,40.678,0,0,1-4,3.8,1.635,1.635,0,0,1-1.063.405,2.542,2.542,0,0,1-.608-.1c-.709.557-1.367,1.063-2.127,1.57a1.473,1.473,0,0,1-.658,1.469,41.016,41.016,0,0,1-4.811,2.785,2.031,2.031,0,0,1-.76.152,1.414,1.414,0,0,1-.911-.3l-2.431,1.063a1.457,1.457,0,0,1-1.013,1.266,50.3,50.3,0,0,1-5.368,1.62.861.861,0,0,1-.354.051,1.618,1.618,0,0,1-1.215-.557,23.863,23.863,0,0,1-2.633.456,1.644,1.644,0,0,1-1.317,1.013,52.261,52.261,0,0,1-5.621.3,1.6,1.6,0,0,1-1.418-.861c-.911-.051-1.823-.1-2.684-.152a1.607,1.607,0,0,1-1.317.658h-.2a50.291,50.291,0,0,1-5.52-.962,1.6,1.6,0,0,1-1.165-1.165l-2.583-.76a1.634,1.634,0,0,1-1.063.405,2.153,2.153,0,0,1-.557-.1,35.5,35.5,0,0,1-5.115-2.228,1.492,1.492,0,0,1-.861-1.367c-.76-.405-1.57-.861-2.279-1.317a1.43,1.43,0,0,1-.76.2,2.064,2.064,0,0,1-.912-.253,47.456,47.456,0,0,1-4.406-3.292,1.485,1.485,0,0,1-.456-1.519c-.658-.608-1.266-1.165-1.874-1.823a1.258,1.258,0,0,1-.405.051,1.467,1.467,0,0,1-1.165-.506,39.429,39.429,0,0,1-3.494-4.2,1.455,1.455,0,0,1-.051-1.62c-.506-.709-.962-1.469-1.367-2.178h-.051a1.678,1.678,0,0,1-1.418-.81,43.56,43.56,0,0,1-2.33-4.912,1.588,1.588,0,0,1,.3-1.57c-.3-.81-.557-1.62-.81-2.431a1.6,1.6,0,0,1-1.215-1.114,37.179,37.179,0,0,1-1.013-5.267A1.327,1.327,0,0,1,676.013,614.364Zm45.577,23.143c15.648,0,28.359-12.154,28.359-27.093,0-14.99-12.711-27.093-28.359-27.093s-28.359,12.154-28.359,27.093C693.18,625.353,705.891,637.507,721.59,637.507Z" transform="translate(-675 -565.9)"/>
            <path id="Path_56" data-name="Path 56" class="cls-3" d="M739.359,600.2c15.648,0,28.359,12.154,28.359,27.093,0,14.99-12.711,27.093-28.359,27.093S711,642.232,711,627.293C710.949,612.354,723.66,600.2,739.359,600.2Zm-23.852,18.282a23.349,23.349,0,0,0-1.722,8.812c0,13.471,11.5,24.409,25.574,24.409s25.574-10.939,25.574-24.409-11.5-24.409-25.574-24.409a26,26,0,0,0-20.864,10.331A23.541,23.541,0,0,0,715.507,618.482Z" transform="translate(-692.769 -582.83)"/>
            <ellipse id="Ellipse_2" data-name="Ellipse 2" class="cls-4" cx="25.878" cy="24.764" rx="25.878" ry="24.764" transform="translate(20.611 19.953)"/>
          </g>
        </g>
        <path id="Path_57" data-name="Path 57" class="cls-5" d="M771.839,644.058a17.153,17.153,0,0,1-3.6,2.532A14.566,14.566,0,0,0,749,625.877a17.682,17.682,0,0,1,2.785-3.444c6.229-5.824,15.8-5.672,21.371.3S778.068,638.285,771.839,644.058Z" transform="translate(-711.525 -591.694)"/>
      </g>
      <path id="Path_58" data-name="Path 58" class="cls-6" d="M82.1,610.625l36.766.456c0-26.334,21.32-43.856,47.654-43.856s47.654,17.573,47.654,43.856h13.521S211.185,557.3,170.723,557.3,82.1,610.625,82.1,610.625Z" transform="translate(-40.523 -431.051)"/>
      <path id="Path_59" data-name="Path 59" class="cls-6" d="M601.6,611.225l36.766.456c0-26.334,21.32-43.855,47.654-43.855s47.654,17.573,47.654,43.855h13.521S730.685,557.9,690.223,557.9C649.861,557.9,601.6,611.225,601.6,611.225Z" transform="translate(-296.941 -431.347)"/>
      <path id="Path_60" data-name="Path 60" class="cls-7" d="M38.494,653.853H54.7L48.065,649.7H35Z" transform="translate(-17.275 -476.658)"/>
      <path id="Path_61" data-name="Path 61" class="cls-8" d="M394.7,329.5H505a4.3,4.3,0,0,1,4.3,4.3v67.049a4.3,4.3,0,0,1-4.3,4.3H394.7a4.3,4.3,0,0,1-4.3-4.3V333.8A4.3,4.3,0,0,1,394.7,329.5Z" transform="translate(-192.696 -318.612)"/>
      <path id="Path_62" data-name="Path 62" class="cls-9" d="M525.847,510.1l-21.016,63.2a21.671,21.671,0,0,1-20.56,14.838H436.718a47.654,47.654,0,1,0-95.307,0H174.851a47.654,47.654,0,1,0-95.307,0H42.778A21.671,21.671,0,0,1,22.218,573.3L1.1,510.1Z" transform="translate(-0.543 -407.754)"/>
      <path id="Path_63" data-name="Path 63" class="cls-10" d="M18.875,479.5H508.021L525.847,495H1.1Z" transform="translate(-0.543 -392.65)"/>
      <path id="Path_64" data-name="Path 64" class="cls-8" d="M642.66,330.1h0a.866.866,0,0,1,.658.354l46.388,74.139a.768.768,0,0,1-.658,1.165H642.66a.779.779,0,0,1-.76-.76V330.86A.746.746,0,0,1,642.66,330.1Z" transform="translate(-316.832 -318.908)"/>
      <path id="Path_65" data-name="Path 65" class="cls-8" d="M279.694,403.234l45.78-73.126a1.376,1.376,0,0,1,1.063-.608h0a1.254,1.254,0,0,1,1.266,1.266v73.126a1.254,1.254,0,0,1-1.266,1.266h-45.78A1.243,1.243,0,0,1,279.694,403.234Z" transform="translate(-137.948 -318.612)"/>
      <path id="Path_66" data-name="Path 66" class="cls-2" d="M54.642,600.141H3.444A3.447,3.447,0,0,1,0,596.7V584.544A3.447,3.447,0,0,1,3.444,581.1h51.2a4.009,4.009,0,0,1,4,4v11.04A3.977,3.977,0,0,1,54.642,600.141Z" transform="translate(0 -442.798)"/>
      <path id="Path_67" data-name="Path 67" class="cls-11" d="M683,462.076h28.511l3.089-16.661-15.75-9.115Z" transform="translate(-337.119 -371.327)"/>
      <circle id="Ellipse_3" data-name="Ellipse 3" class="cls-2" cx="7.647" cy="7.647" r="7.647" transform="translate(39.804 112.019)"/>
      <path id="Path_68" data-name="Path 68" class="cls-2" d="M915.8,600.741h49.882a3.339,3.339,0,0,0,3.342-3.342V585.042a3.339,3.339,0,0,0-3.342-3.342H915.8a4.009,4.009,0,0,0-4,4v11.04A4.009,4.009,0,0,0,915.8,600.741Z" transform="translate(-450.051 -443.094)"/>
      <path id="Path_69" data-name="Path 69" class="cls-12" d="M995.2,546.41l12.1-36.31h9.217l-12.1,36.31Z" transform="translate(-491.216 -407.754)"/>
      <path id="Path_70" data-name="Path 70" class="cls-13" d="M27.493,545.81,15.441,509.5H.4l12.053,36.31Z" transform="translate(-0.197 -407.457)"/>
      <g id="Group_7" data-name="Group 7" transform="translate(249.055 4.558)">
        <path id="Path_71" data-name="Path 71" class="cls-14" d="M591.65,388.321l-2.228.557a.828.828,0,0,1-1.013-.608l-2.431-9.622a.828.828,0,0,1,.608-1.013l2.228-.557a.828.828,0,0,1,1.013.608l2.431,9.622A.828.828,0,0,1,591.65,388.321Z" transform="translate(-538.274 -346.643)"/>
        <circle id="Ellipse_4" data-name="Ellipse 4" class="cls-15" cx="23.447" cy="23.447" r="23.447" transform="translate(5.267 8.255)"/>
        <path id="Path_72" data-name="Path 72" class="cls-11" d="M549.987,328.951a44.006,44.006,0,0,1-31.7,13.369s-7.039-.608-7.039,5.419V352.4s-.253,2.583-2.431,2.583a3.235,3.235,0,0,1-3.089-3.089c0-1.013.912-5.722-2.026-5.722s-4.71,11.09-4.71,11.09-7.191-9.419-7.191-16.813,6.685-14.483,12.66-14.483c3.9-2.988,5.115-8.964,15.243-8.964,17.623,0,21.877,10.533,26.485,10.533S549.987,328.951,549.987,328.951Z" transform="translate(-491.8 -317)"/>
        <circle id="Ellipse_5" data-name="Ellipse 5" class="cls-11" cx="2.026" cy="2.026" r="2.026" transform="translate(41.577 27.65)"/>
        <path id="Path_73" data-name="Path 73" class="cls-16" d="M529.874,429.7s-9.723,0-9.723,10.381-.051,15.294-.051,15.294l25.928.557L539.5,431.321S538.382,429.7,529.874,429.7Z" transform="translate(-505.768 -372.627)"/>
        <path id="Path_74" data-name="Path 74" class="cls-16" d="M554.2,437.4c.709,0,11.5,10.584,20.257,10.584s35.854-8.2,35.854-8.2v8.153s2.026,3.494-3.7,3.8c-8.508.506-50.084,6.685-50.084,6.685Z" transform="translate(-522.6 -376.428)"/>
        <path id="Path_75" data-name="Path 75" class="cls-15" d="M541.181,423.558h0a2.485,2.485,0,0,1-2.481-2.481v-7.495a2.485,2.485,0,0,1,2.481-2.481h0a2.485,2.485,0,0,1,2.481,2.481v7.495A2.485,2.485,0,0,1,541.181,423.558Z" transform="translate(-514.949 -363.446)"/>
      </g>
      <rect id="Rectangle_14" data-name="Rectangle 14" class="cls-11" width="5.469" height="33.677" transform="translate(343.15 57.055) rotate(29.98)"/>
      <path id="Path_76" data-name="Path 76" class="cls-17" d="M504.712,461.458l-8.558.405a3.072,3.072,0,0,1-3.241-2.937l-1.418-30.385a3.072,3.072,0,0,1,2.937-3.241l8.558-.405a3.072,3.072,0,0,1,3.241,2.937l1.418,30.385A3.072,3.072,0,0,1,504.712,461.458Z" transform="translate(-242.592 -365.695)"/>
      <path id="Path_77" data-name="Path 77" class="cls-10" d="M511.867,394.85l-48.413-75.658A24.218,24.218,0,0,0,442.995,308H318.872a24.217,24.217,0,0,0-20.459,11.192L250,394.85h1.367v13.217H527.211V394.85Zm-245.1,0a1.243,1.243,0,0,1-1.063-1.924l45.78-73.126a1.376,1.376,0,0,1,1.063-.608,1.254,1.254,0,0,1,1.266,1.266v73.126a1.254,1.254,0,0,1-1.266,1.266Zm59,0a4.3,4.3,0,0,1-4.3-4.3V323.5a4.3,4.3,0,0,1,4.3-4.3h110.3a4.3,4.3,0,0,1,4.3,4.3v67.049a4.3,4.3,0,0,1-4.3,4.3Zm123.464,0a.779.779,0,0,1-.76-.76V320a.779.779,0,0,1,.76-.76.866.866,0,0,1,.658.354l46.388,74.139a.768.768,0,0,1-.658,1.165Z" transform="translate(-123.396 -308)"/>
      <rect id="Rectangle_15" data-name="Rectangle 15" class="cls-18" width="4.203" height="93.484" transform="translate(328.904 180.038) rotate(180)"/>
      <rect id="Rectangle_16" data-name="Rectangle 16" class="cls-18" width="2.735" height="93.484" transform="translate(189.811 180.036) rotate(180)"/>
      <path id="Path_78" data-name="Path 78" class="cls-2" d="M420.921,492.9h22.991a1.632,1.632,0,0,0,1.621-1.621v-4.558a1.632,1.632,0,0,0-1.621-1.621H420.921a1.632,1.632,0,0,0-1.621,1.621v4.558A1.632,1.632,0,0,0,420.921,492.9Z" transform="translate(-206.96 -395.414)"/>
      <rect id="Rectangle_17" data-name="Rectangle 17" class="cls-11" width="3.089" height="16.914" transform="translate(352.7 80.213) rotate(119.98)"/>
      <path id="Path_79" data-name="Path 79" class="cls-19" d="M399.6,329.5H509.9a4.3,4.3,0,0,1,4.3,4.3v67.049" transform="translate(-197.237 -318.612)"/>
      <path id="Path_80" data-name="Path 80" class="cls-19" d="M642.66,330.1h0a.866.866,0,0,1,.658.354l46.388,74.139a.768.768,0,0,1-.658,1.165H642.66a.779.779,0,0,1-.76-.76V330.86A.746.746,0,0,1,642.66,330.1Z" transform="translate(-316.832 -318.908)"/>
    </g>
    <g id="Group_9" data-name="Group 9" transform="translate(228.947 -0.016)">
      <path id="Path_81" data-name="Path 81" class="cls-20" d="M485.318,119.2l-29.524,1.013L452.1,14.931C451.945,9.867,457.668.5,465.821.245l6.685-.253a9.632,9.632,0,0,1,9.166,13.876,6.865,6.865,0,0,0,.1,2.633Z" transform="translate(-452.094 0.016)"/>
      <rect id="Rectangle_18" data-name="Rectangle 18" class="cls-21" width="4.811" height="97.789" transform="translate(28.791 116.652) rotate(178.062)"/>
      <rect id="Rectangle_19" data-name="Rectangle 19" class="cls-21" width="4.811" height="97.789" transform="translate(15.665 116.604) rotate(178.062)"/>
      <rect id="Rectangle_20" data-name="Rectangle 20" class="cls-21" width="23.244" height="12.812" transform="translate(4.878 36.599) rotate(-0.376)"/>
      <rect id="Rectangle_21" data-name="Rectangle 21" class="cls-21" width="23.244" height="12.812" transform="translate(6.144 74.277) rotate(-0.376)"/>
    </g>
    <g id="Group_10" data-name="Group 10" transform="translate(164.221 6.874)">
      <path id="Path_82" data-name="Path 82" class="cls-22" d="M394.834,110.776l-15.8,9.318-53.477-90.75A9.174,9.174,0,0,1,328.8,16.785l3.545-2.076c4.355-2.583,7.748-.658,9.014,5.368a10.965,10.965,0,0,0,1.367,2.279Z" transform="translate(-324.281 -13.589)"/>
      <rect id="Rectangle_22" data-name="Rectangle 22" class="cls-23" width="4.811" height="17.066" transform="translate(20.75 14.011) rotate(59.555)"/>
      <rect id="Rectangle_23" data-name="Rectangle 23" class="cls-23" width="4.811" height="17.066" transform="translate(24.703 20.689) rotate(59.555)"/>
      <rect id="Rectangle_24" data-name="Rectangle 24" class="cls-23" width="4.811" height="17.066" transform="translate(28.348 26.905) rotate(59.555)"/>
    </g>
    <g id="Group_11" data-name="Group 11" transform="translate(148.759 38.024)">
      <path id="Path_83" data-name="Path 83" class="cls-24" d="M373.991,134.553l-11.85,14.028L297.016,93.736A9.158,9.158,0,0,1,295.9,80.823h0c5.368-6.482,9.571-8.255,12.914-1.114a7.017,7.017,0,0,0,1.671,1.418Z" transform="translate(-293.749 -75.1)"/>
      <rect id="Rectangle_25" data-name="Rectangle 25" class="cls-23" width="4.811" height="17.066" transform="translate(18.913 9.095) rotate(39.604)"/>
      <rect id="Rectangle_26" data-name="Rectangle 26" class="cls-23" width="4.811" height="17.066" transform="translate(24.851 13.994) rotate(39.604)"/>
      <rect id="Rectangle_27" data-name="Rectangle 27" class="cls-23" width="4.811" height="17.066" transform="translate(30.414 18.608) rotate(39.604)"/>
    </g>
    <g id="Group_12" data-name="Group 12" transform="translate(271.891 5.372)">
      <rect id="Rectangle_28" data-name="Rectangle 28" class="cls-21" width="2.38" height="105.993" transform="translate(25.863 0) rotate(10.078)"/>
      <ellipse id="Ellipse_6" data-name="Ellipse 6" class="cls-25" cx="4.862" cy="9.115" rx="4.862" ry="9.115" transform="translate(0 100.072) rotate(-79.922)"/>
      <rect id="Rectangle_29" data-name="Rectangle 29" class="cls-21" width="6.077" height="20.257" transform="translate(23.556 1.132) rotate(10.078)"/>
      <path id="Path_84" data-name="Path 84" class="cls-25" d="M565.416,19.7s-22.434,6.026-19.649,13.724C548.451,41.121,565.416,19.7,565.416,19.7Z" transform="translate(-541.155 -15.104)"/>
    </g>
    <g id="Group_13" data-name="Group 13" transform="translate(248.631 30.819)">
      <rect id="Rectangle_30" data-name="Rectangle 30" class="cls-21" width="2.481" height="105.993" transform="matrix(-0.591, -0.806, 0.806, -0.591, 3.992, 65.207)"/>
      <ellipse id="Ellipse_7" data-name="Ellipse 7" class="cls-25" cx="4.862" cy="9.521" rx="4.862" ry="9.521" transform="matrix(0.806, -0.591, 0.591, 0.806, 0, 54.799)"/>
      <rect id="Rectangle_31" data-name="Rectangle 31" class="cls-21" width="6.33" height="20.257" transform="matrix(-0.591, -0.806, 0.806, -0.591, 73.126, 17.084)"/>
      <path id="Path_85" data-name="Path 85" class="cls-25" d="M654.855,72.7s4.963,23.5-3.241,24.257S654.855,72.7,654.855,72.7Z" transform="translate(-568.796 -66.711)"/>
    </g>
    <path id="Path_86" data-name="Path 86" class="cls-26" d="M327.964,217.4s-16.458-2.228-14.433,14.483,13.167,11.648,15.344,8.609,4.659-13.015,4.659-13.015.253-5.419,6.583-6.837S333.181,217.2,327.964,217.4Z" transform="translate(-154.669 -107.266)"/>
    <path id="Path_87" data-name="Path 87" class="cls-24" d="M570.229,213.9s16.864-2.228,14.787,14.483-13.521,11.648-15.7,8.609-4.76-13.015-4.76-13.015-.253-5.419-6.735-6.837S564.861,213.7,570.229,213.9Z" transform="translate(-274.483 -105.539)"/>
    <path id="Path_88" data-name="Path 88" class="cls-23" d="M348.841,217.54c-1.621,4.406,4.254,10.382,15.395,10.787s12.66-5.317,20.257-5.368C392.089,222.857,354.513,202.347,348.841,217.54Z" transform="translate(-172.052 -104.617)"/>
    <g id="Group_14" data-name="Group 14" transform="translate(319.445 89.62)">
      <path id="Path_89" data-name="Path 89" class="cls-21" d="M633.634,203.945l26.384,6.837c2.684.912,5.723,1.469,6.128-.962l.658-3.545a3.866,3.866,0,0,0-3.14-4.254l-26.992-7.09c-2.887-.76-5.874,1.063-5.874,3.7V200.4A3.807,3.807,0,0,0,633.634,203.945Z" transform="translate(-630.797 -185.757)"/>
      <path id="Path_90" data-name="Path 90" class="cls-20" d="M642.3,186.108s7.7-16.1,26.536-5.52c18.13,10.179.76,9.065.76,14.078" transform="translate(-636.474 -176.985)"/>
    </g>
    <g id="Group_15" data-name="Group 15" transform="translate(158.706 103.92)">
      <path id="Path_91" data-name="Path 91" class="cls-27" d="M475.85,314.96l-8.964,2.279s-4.3,2.228,1.418,3.241l42.944-6.28Z" transform="translate(-388.388 -259.013)"/>
      <path id="Path_92" data-name="Path 92" class="cls-28" d="M322.1,291s3.14,10.685,12.61,10.787c0,0,151.114,4.1,175.068,1.469,0,0,19.4,1.063,19.7-6.634Z" transform="translate(-317.69 -247.561)"/>
      <path id="Path_93" data-name="Path 93" class="cls-29" d="M316.03,239.242l7.039-19.953s-1.215-2.937,61.631-11.951c0,0,21.117-3.8,39.045-1.215,0,0,31.7,2.178,74.494,18.383,0,0,20.1,6.28,24.966,12.812,0,0,4.2,3.6,4.3,6.735,0,0,4,2.684,1.924,7.951,0,0-5.672,3.7-9.369,3.646L317.8,248.662s-3.6-1.215-4-2.836C313.8,245.826,311.978,240.66,316.03,239.242Z" transform="translate(-313.392 -205.223)"/>
      <path id="Path_94" data-name="Path 94" class="cls-27" d="M333.615,312.1l-9.115,1.722s-4.406,1.975,1.215,3.292l43.248-3.747Z" transform="translate(-318.064 -257.976)"/>
    </g>
  </g>
</svg>
