<svg xmlns="http://www.w3.org/2000/svg" xmlns:xlink="http://www.w3.org/1999/xlink" viewBox="5841.434 1105.729 551.933 363.442">
  <defs>
    <style>
      .cls-1 {
        opacity: 0.1;
      }

      .cls-2 {
        clip-path: url(#clip-path);
      }

      .cls-3 {
        clip-path: url(#clip-path-2);
      }

      .cls-4 {
        fill: #2a2a2a;
      }

      .cls-5 {
        fill: #4d4d4d;
      }

      .cls-6 {
        fill: #8fa6ae;
      }

      .cls-7 {
        opacity: 0.2;
      }

      .cls-8 {
        clip-path: url(#clip-path-4);
      }

      .cls-9 {
        fill: #fff;
      }

      .cls-10 {
        clip-path: url(#clip-path-5);
      }

      .cls-11 {
        opacity: 0.15;
      }

      .cls-12 {
        clip-path: url(#clip-path-6);
      }

      .cls-13 {
        fill: #aaa;
      }

      .cls-14 {
        opacity: 0.5;
      }

      .cls-15 {
        clip-path: url(#clip-path-8);
      }

      .cls-16 {
        fill: #ffde00;
      }

      .cls-17 {
        fill: #eac218;
      }

      .cls-18 {
        clip-path: url(#clip-path-9);
      }

      .cls-19 {
        clip-path: url(#clip-path-10);
      }

      .cls-20 {
        fill: #1d1d1d;
      }

      .cls-21 {
        fill: #e4df1a;
      }

      .cls-22 {
        fill: #ec1e24;
      }

      .cls-23 {
        fill: #ed3268;
      }

      .cls-24 {
        fill: #f27f98;
      }

      .cls-25 {
        fill: #bbbdbf;
      }

      .cls-26 {
        fill: #424143;
      }

      .cls-27 {
        opacity: 0.46;
      }

      .cls-28 {
        clip-path: url(#clip-path-11);
      }

      .cls-29 {
        clip-path: url(#clip-path-12);
      }

      .cls-30 {
        opacity: 0.3;
      }

      .cls-31 {
        clip-path: url(#clip-path-13);
      }

      .cls-32, .cls-37, .cls-38, .cls-39, .cls-40 {
        fill: none;
        stroke-miterlimit: 10;
      }

      .cls-32 {
        stroke: #ffde00;
        stroke-linecap: round;
        stroke-linejoin: round;
        stroke-width: 20px;
      }

      .cls-33 {
        fill: #f9eaed;
      }

      .cls-34 {
        fill: #af0026;
      }

      .cls-35 {
        fill: #c7d8d8;
      }

      .cls-36 {
        opacity: 0.75;
      }

      .cls-37, .cls-39 {
        stroke: #5e5e5e;
      }

      .cls-37, .cls-38 {
        stroke-width: 8px;
      }

      .cls-38, .cls-40 {
        stroke: #f9eaed;
      }

      .cls-39, .cls-40 {
        stroke-width: 4px;
      }

      .cls-41 {
        fill: #001c4e;
        font-size: 26px;
        font-family: Helvetica;
      }
    </style>
    <clipPath id="clip-path">
      <rect id="Rectangle_58" data-name="Rectangle 58" width="537.448" height="92.352"/>
    </clipPath>
    <clipPath id="clip-path-2">
      <rect id="Rectangle_59" data-name="Rectangle 59" width="96.164" height="33.761"/>
    </clipPath>
    <clipPath id="clip-path-4">
      <rect id="Rectangle_61" data-name="Rectangle 61" width="29.513" height="29.949"/>
    </clipPath>
    <clipPath id="clip-path-5">
      <rect id="Rectangle_62" data-name="Rectangle 62" width="29.404" height="29.84"/>
    </clipPath>
    <clipPath id="clip-path-6">
      <rect id="Rectangle_63" data-name="Rectangle 63" width="153.012" height="56.522"/>
    </clipPath>
    <clipPath id="clip-path-8">
      <rect id="Rectangle_65" data-name="Rectangle 65" width="124.915" height="79.501"/>
    </clipPath>
    <clipPath id="clip-path-9">
      <rect id="Rectangle_66" data-name="Rectangle 66" width="50.314" height="79.501"/>
    </clipPath>
    <clipPath id="clip-path-10">
      <rect id="Rectangle_67" data-name="Rectangle 67" width="50.75" height="79.501"/>
    </clipPath>
    <clipPath id="clip-path-11">
      <rect id="Rectangle_70" data-name="Rectangle 70" width="4.465" height="98.233"/>
    </clipPath>
    <clipPath id="clip-path-12">
      <rect id="Rectangle_72" data-name="Rectangle 72" width="2.94" height="98.233"/>
    </clipPath>
    <clipPath id="clip-path-13">
      <rect id="Rectangle_74" data-name="Rectangle 74" width="120.449" height="74.927"/>
    </clipPath>
  </defs>
  <g id="Group_615" data-name="Group 615" transform="translate(5744 -420)">
    <g id="Group_161" data-name="Group 161" transform="translate(97.434 1657.529)">
      <g id="Group_163" data-name="Group 163" class="cls-1" transform="translate(0.545 105.638)">
        <g id="Group_162" data-name="Group 162">
          <g id="Group_161-2" data-name="Group 161" class="cls-2">
            <path id="Path_274" data-name="Path 274" d="M537.948,125.1,516.494,175.63a22.347,22.347,0,0,1-20.583,13.613H42.646A22.235,22.235,0,0,1,22.063,175.63L.5,125.1l18.732-12.742h113.7L191.411,97H349.76l58.373,15.465H519.217Z" transform="translate(-0.5 -97)"/>
          </g>
        </g>
      </g>
      <g id="Group_166" data-name="Group 166" class="cls-1" transform="translate(84.293 197.663)">
        <g id="Group_165" data-name="Group 165">
          <g id="Group_164" data-name="Group 164" class="cls-3">
            <path id="Path_275" data-name="Path 275" d="M173.555,181.5c-2.614,18.95-23.088,33.761-48.027,33.761S80.114,200.45,77.5,181.5Z" transform="translate(-77.391 -181.5)"/>
          </g>
        </g>
      </g>
      <g id="Group_169" data-name="Group 169" class="cls-1" transform="translate(360.041 197.881)">
        <g id="Group_168" data-name="Group 168">
          <g id="Group_167" data-name="Group 167" class="cls-3">
            <path id="Path_276" data-name="Path 276" d="M426.755,181.7c-2.614,18.95-23.088,33.761-48.027,33.761S333.314,200.65,330.7,181.7Z" transform="translate(-330.591 -181.7)"/>
          </g>
        </g>
      </g>
      <path id="Path_277" data-name="Path 277" class="cls-4" d="M77,176.068c-.109-.871-.109-1.851-.218-2.723a1.551,1.551,0,0,1-.98-1.416h0a46.133,46.133,0,0,1,.327-5.554,1.686,1.686,0,0,1,1.089-1.307,22.3,22.3,0,0,1,.545-2.614,1.5,1.5,0,0,1-.545-1.634,45.324,45.324,0,0,1,1.742-5.445,1.551,1.551,0,0,1,1.416-.98,26.171,26.171,0,0,1,1.2-2.5,1.478,1.478,0,0,1-.109-1.634c.871-1.634,1.96-3.267,3.049-4.9a1.553,1.553,0,0,1,1.634-.653,15.925,15.925,0,0,1,1.742-2.069A1.521,1.521,0,0,1,88.215,141c1.307-1.416,2.723-2.723,4.138-4.029a1.748,1.748,0,0,1,1.742-.327c.762-.545,1.416-1.089,2.178-1.634a1.464,1.464,0,0,1,.653-1.525,47.823,47.823,0,0,1,5.119-2.94,1.664,1.664,0,0,1,1.742.109,26.6,26.6,0,0,1,2.614-1.089,1.653,1.653,0,0,1,1.089-1.307c1.851-.653,3.7-1.2,5.663-1.742a1.706,1.706,0,0,1,1.634.545c.871-.218,1.851-.327,2.832-.545a1.854,1.854,0,0,1,1.416-1.089,53.216,53.216,0,0,1,5.881-.327h0a1.738,1.738,0,0,1,1.525.871c.98,0,1.851.109,2.832.109a2.129,2.129,0,0,1,1.634-.762,55.185,55.185,0,0,1,5.881.98,1.509,1.509,0,0,1,1.2,1.2c.871.218,1.851.545,2.723.762a1.661,1.661,0,0,1,1.743-.327,47.9,47.9,0,0,1,5.445,2.287,1.7,1.7,0,0,1,.871,1.416,17.332,17.332,0,0,1,2.4,1.416,1.478,1.478,0,0,1,1.742.109c1.634,1.089,3.158,2.287,4.683,3.485a1.631,1.631,0,0,1,.545,1.634c.653.653,1.307,1.2,1.96,1.851a2.042,2.042,0,0,1,1.742.436c1.307,1.416,2.5,2.94,3.7,4.465a1.971,1.971,0,0,1,.109,1.742,26.053,26.053,0,0,1,1.416,2.287,1.738,1.738,0,0,1,1.525.871,43.779,43.779,0,0,1,2.4,5.119,1.521,1.521,0,0,1-.327,1.634c.327.871.545,1.742.871,2.614a1.8,1.8,0,0,1,1.307,1.2,50,50,0,0,1,1.089,5.554,1.463,1.463,0,0,1-.762,1.525c.109.871.109,1.851.218,2.723a1.551,1.551,0,0,1,.98,1.416v.109a49.364,49.364,0,0,1-.327,5.663,1.686,1.686,0,0,1-1.089,1.307c-.109.871-.327,1.742-.545,2.723a1.706,1.706,0,0,1,.545,1.634,45.318,45.318,0,0,1-1.742,5.445,1.551,1.551,0,0,1-1.416.98,26.168,26.168,0,0,1-1.2,2.5,1.478,1.478,0,0,1,.109,1.634c-.871,1.634-1.96,3.267-3.049,4.9a1.756,1.756,0,0,1-1.416.653h-.218a15.924,15.924,0,0,1-1.742,2.069,1.521,1.521,0,0,1-.327,1.634c-1.307,1.416-2.723,2.723-4.138,4.029a2.3,2.3,0,0,1-1.089.436,1.381,1.381,0,0,1-.653-.109c-.762.545-1.416,1.089-2.178,1.634a1.464,1.464,0,0,1-.653,1.525,47.824,47.824,0,0,1-5.119,2.94,2.019,2.019,0,0,1-.762.218,1.757,1.757,0,0,1-.98-.327,26.607,26.607,0,0,1-2.614,1.089,1.653,1.653,0,0,1-1.089,1.307A48.4,48.4,0,0,1,137,217.343h-.436a1.8,1.8,0,0,1-1.307-.545c-.871.218-1.851.327-2.832.545a1.854,1.854,0,0,1-1.416,1.089,53.212,53.212,0,0,1-5.881.327,1.738,1.738,0,0,1-1.525-.871c-.98,0-1.851-.109-2.832-.109a1.7,1.7,0,0,1-1.416.762h-.218a55.186,55.186,0,0,1-5.881-.98,1.509,1.509,0,0,1-1.2-1.2c-.871-.218-1.851-.545-2.723-.762a1.56,1.56,0,0,1-1.089.436.816.816,0,0,1-.545-.109,47.9,47.9,0,0,1-5.445-2.287,1.7,1.7,0,0,1-.871-1.416,17.332,17.332,0,0,1-2.4-1.416,2.051,2.051,0,0,1-.871.218,1.757,1.757,0,0,1-.98-.327c-1.634-1.089-3.158-2.287-4.683-3.485a1.631,1.631,0,0,1-.545-1.634c-.653-.653-1.307-1.2-1.96-1.851-.109,0-.327.109-.436.109a1.749,1.749,0,0,1-1.2-.545c-1.307-1.416-2.5-2.94-3.7-4.465a1.971,1.971,0,0,1-.109-1.742A26.051,26.051,0,0,1,83.1,194.8h0a1.738,1.738,0,0,1-1.525-.871,43.779,43.779,0,0,1-2.4-5.119,1.521,1.521,0,0,1,.327-1.634c-.327-.871-.545-1.742-.871-2.614a1.636,1.636,0,0,1-1.307-1.2,50,50,0,0,1-1.089-5.554A1.909,1.909,0,0,1,77,176.068m48.027,24.395c16.554,0,29.949-12.742,29.949-28.533s-13.4-28.533-29.949-28.533-29.949,12.742-29.949,28.533,13.4,28.533,29.949,28.533" transform="translate(6.75 11.141)"/>
      <path id="Path_278" data-name="Path 278" class="cls-5" d="M123.449,141.9c16.554,0,29.949,12.742,29.949,28.533s-13.4,28.533-29.949,28.533S93.5,186.225,93.5,170.433,106.9,141.9,123.449,141.9M98.292,161.176a24.212,24.212,0,0,0-1.851,9.257c0,14.158,12.089,25.7,26.9,25.7s26.9-11.544,26.9-25.7-12.089-25.7-26.9-25.7a26.189,26.189,0,0,0-25.048,16.445" transform="translate(8.327 12.637)"/>
      <path id="Path_279" data-name="Path 279" class="cls-6" d="M95.9,170.428c0,14.376,12.2,26.028,27.335,26.028,15.029,0,27.335-11.653,27.335-26.028s-12.2-26.028-27.335-26.028S95.9,156.053,95.9,170.428" transform="translate(8.54 12.859)"/>
      <g id="Group_172" data-name="Group 172" class="cls-7" transform="translate(122.192 164.121)">
        <g id="Group_171" data-name="Group 171">
          <g id="Group_170" data-name="Group 170" class="cls-8">
            <path id="Path_280" data-name="Path 280" class="cls-9" d="M136.277,177.92a22.276,22.276,0,0,1-3.812,2.723A15.358,15.358,0,0,0,112.1,158.861a15.213,15.213,0,0,1,2.94-3.594c6.534-6.1,16.663-5.99,22.543.327,5.881,6.208,5.227,16.227-1.307,22.326" transform="translate(-112.209 -150.693)"/>
          </g>
        </g>
      </g>
      <path id="Path_281" data-name="Path 281" class="cls-4" d="M330.889,176.941c-.109-.871-.109-1.851-.218-2.723a1.459,1.459,0,0,1-.871-1.416h0a47.5,47.5,0,0,1,.327-5.554,1.686,1.686,0,0,1,1.089-1.307,22.3,22.3,0,0,1,.545-2.614,1.706,1.706,0,0,1-.545-1.634,52.553,52.553,0,0,1,1.742-5.445,1.551,1.551,0,0,1,1.416-.98,26.16,26.16,0,0,1,1.2-2.5,1.478,1.478,0,0,1-.109-1.634,44.435,44.435,0,0,1,3.049-4.792,1.553,1.553,0,0,1,1.634-.653,15.924,15.924,0,0,1,1.742-2.069,1.521,1.521,0,0,1,.327-1.634c1.307-1.416,2.723-2.723,4.138-4.029a1.748,1.748,0,0,1,1.742-.327c.762-.545,1.416-1.089,2.178-1.634a1.464,1.464,0,0,1,.653-1.525,46.337,46.337,0,0,1,5.01-2.94,1.664,1.664,0,0,1,1.742.109,26.6,26.6,0,0,1,2.614-1.089,1.653,1.653,0,0,1,1.089-1.307,48.4,48.4,0,0,1,5.663-1.634,1.706,1.706,0,0,1,1.634.545,22.04,22.04,0,0,1,2.832-.436,1.854,1.854,0,0,1,1.416-1.089,53.215,53.215,0,0,1,5.881-.327h0a1.738,1.738,0,0,1,1.525.871c.98,0,1.851.109,2.832.109a2.129,2.129,0,0,1,1.634-.762,49.079,49.079,0,0,1,5.772.98,1.509,1.509,0,0,1,1.2,1.2c.871.218,1.851.545,2.723.762a1.661,1.661,0,0,1,1.742-.327,47.9,47.9,0,0,1,5.445,2.287,1.7,1.7,0,0,1,.871,1.416,17.337,17.337,0,0,1,2.4,1.416,1.478,1.478,0,0,1,1.742.109c1.634,1.089,3.158,2.287,4.683,3.485a1.631,1.631,0,0,1,.545,1.634c.653.653,1.307,1.2,1.96,1.851a2.042,2.042,0,0,1,1.743.436c1.307,1.416,2.5,2.94,3.7,4.465a1.761,1.761,0,0,1,.109,1.634,26.057,26.057,0,0,1,1.416,2.287,1.738,1.738,0,0,1,1.525.871,43.786,43.786,0,0,1,2.4,5.119,1.521,1.521,0,0,1-.327,1.634c.327.871.545,1.742.871,2.614a1.8,1.8,0,0,1,1.307,1.2,50,50,0,0,1,1.089,5.554,1.463,1.463,0,0,1-.762,1.525c.109.871.109,1.742.218,2.723a1.459,1.459,0,0,1,.871,1.416v.109a49.374,49.374,0,0,1-.327,5.663,1.686,1.686,0,0,1-1.089,1.307,22.308,22.308,0,0,1-.545,2.614,1.706,1.706,0,0,1,.545,1.634,52.56,52.56,0,0,1-1.742,5.445,1.551,1.551,0,0,1-1.416.98,26.167,26.167,0,0,1-1.2,2.5,1.478,1.478,0,0,1,.109,1.634,44.435,44.435,0,0,1-3.049,4.792,1.756,1.756,0,0,1-1.416.653h-.218a15.924,15.924,0,0,1-1.742,2.069,1.521,1.521,0,0,1-.327,1.634c-1.307,1.416-2.723,2.723-4.138,4.029a2.3,2.3,0,0,1-1.089.436,1.381,1.381,0,0,1-.653-.109c-.762.545-1.416,1.089-2.178,1.634a1.464,1.464,0,0,1-.653,1.525,46.335,46.335,0,0,1-5.01,2.94,2.019,2.019,0,0,1-.762.218,1.757,1.757,0,0,1-.98-.327,26.6,26.6,0,0,1-2.614,1.089,1.653,1.653,0,0,1-1.089,1.307,48.4,48.4,0,0,1-5.663,1.634h-.436a1.8,1.8,0,0,1-1.307-.545c-.871.218-1.851.327-2.832.545a1.854,1.854,0,0,1-1.416,1.089,53.215,53.215,0,0,1-5.881.327,1.738,1.738,0,0,1-1.525-.871c-.98,0-1.851-.109-2.832-.109a1.7,1.7,0,0,1-1.416.762h-.218a49.082,49.082,0,0,1-5.772-.98,1.509,1.509,0,0,1-1.2-1.2c-.871-.218-1.851-.545-2.723-.762a1.56,1.56,0,0,1-1.089.436.816.816,0,0,1-.545-.109,47.9,47.9,0,0,1-5.445-2.287,1.7,1.7,0,0,1-.871-1.416,17.334,17.334,0,0,1-2.4-1.416,2.019,2.019,0,0,1-.762.218,1.756,1.756,0,0,1-.98-.327c-1.634-1.089-3.158-2.287-4.683-3.485a1.631,1.631,0,0,1-.545-1.634c-.653-.653-1.307-1.2-1.96-1.851-.109,0-.327.109-.436.109a1.749,1.749,0,0,1-1.2-.545c-1.307-1.416-2.5-2.94-3.7-4.465a1.761,1.761,0,0,1-.109-1.634,26.042,26.042,0,0,1-1.416-2.287h0a1.877,1.877,0,0,1-1.525-.871,43.782,43.782,0,0,1-2.4-5.119,1.521,1.521,0,0,1,.327-1.634c-.327-.871-.545-1.742-.871-2.614a1.8,1.8,0,0,1-1.307-1.2,50,50,0,0,1-1.089-5.554,1.527,1.527,0,0,1,.653-1.851m47.81,24.286c16.445,0,29.84-12.742,29.84-28.533s-13.4-28.533-29.84-28.533-29.84,12.742-29.84,28.533,13.4,28.533,29.84,28.533" transform="translate(29.37 11.248)"/>
      <path id="Path_282" data-name="Path 282" class="cls-5" d="M377.14,142.8c16.445,0,29.84,12.742,29.84,28.533s-13.4,28.533-29.84,28.533-29.84-12.742-29.84-28.533c.109-15.791,13.4-28.533,29.84-28.533m-25.048,19.276a23.8,23.8,0,0,0-1.851,9.257c0,14.158,12.089,25.7,26.9,25.7s26.9-11.544,26.9-25.7-12.089-25.7-26.9-25.7a27.235,27.235,0,0,0-21.89,10.782,31.607,31.607,0,0,0-3.158,5.663" transform="translate(30.929 12.717)"/>
      <path id="Path_283" data-name="Path 283" class="cls-6" d="M349.7,171.328c0,14.376,12.2,26.028,27.226,26.028s27.226-11.653,27.226-26.028-12.2-26.028-27.226-26.028S349.7,156.953,349.7,171.328" transform="translate(31.142 12.94)"/>
      <g id="Group_175" data-name="Group 175" class="cls-7" transform="translate(398.485 165.101)">
        <g id="Group_174" data-name="Group 174">
          <g id="Group_173" data-name="Group 173" class="cls-10">
            <path id="Path_284" data-name="Path 284" class="cls-9" d="M389.968,178.829a16.986,16.986,0,0,1-3.812,2.614,15.737,15.737,0,0,0-1.634-18.841,15.527,15.527,0,0,0-18.623-2.94,15.214,15.214,0,0,1,2.94-3.594c6.534-6.1,16.663-5.99,22.435.327,5.881,6.317,5.227,16.336-1.307,22.435" transform="translate(-365.9 -151.602)"/>
          </g>
        </g>
      </g>
      <g id="Group_178" data-name="Group 178" class="cls-11" transform="translate(43.671 132.756)">
        <g id="Group_177" data-name="Group 177">
          <g id="Group_176" data-name="Group 176" class="cls-12">
            <path id="Path_285" data-name="Path 285" d="M40.1,177.877l38.661.545c0-27.662,22.435-46.067,50.1-46.067s50.1,18.405,50.1,46.067h14.158S175.8,121.9,133.214,121.9C90.85,121.791,40.1,177.877,40.1,177.877" transform="translate(-40.1 -121.9)"/>
          </g>
        </g>
      </g>
      <path id="Path_286" data-name="Path 286" class="cls-13" d="M20.694,171.356h17.1L30.822,167H17.1Z" transform="translate(1.523 14.872)"/>
      <g id="Group_181" data-name="Group 181" class="cls-11" transform="translate(319.637 132.974)">
        <g id="Group_180" data-name="Group 180">
          <g id="Group_179" data-name="Group 179" class="cls-12">
            <path id="Path_287" data-name="Path 287" d="M293.5,178.186l38.661.436c0-27.662,22.435-46.067,50.1-46.067s50.1,18.405,50.1,46.067h14.158S429.2,122.1,386.614,122.1c-42.364,0-93.114,56.086-93.114,56.086" transform="translate(-293.5 -122.1)"/>
          </g>
        </g>
      </g>
      <g id="Group_184" data-name="Group 184" class="cls-14" transform="translate(207.683 11.435)">
        <g id="Group_183" data-name="Group 183">
          <g id="Group_182" data-name="Group 182" class="cls-15">
            <path id="Path_288" data-name="Path 288" class="cls-9" d="M195.274,10.5H311.149a4.6,4.6,0,0,1,4.574,4.574V85.536a4.6,4.6,0,0,1-4.574,4.574H195.274a4.6,4.6,0,0,1-4.574-4.574V15.074a4.6,4.6,0,0,1,4.574-4.574" transform="translate(-190.7 -10.5)"/>
          </g>
        </g>
      </g>
      <path id="Path_289" data-name="Path 289" class="cls-16" d="M551.879,98.8l-22.108,66.432a22.731,22.731,0,0,1-21.563,15.573H458.221a50.1,50.1,0,0,0-100.193,0H183.017a50.1,50.1,0,0,0-100.193,0H44.271a22.731,22.731,0,0,1-21.563-15.573L.6,98.8Z" transform="translate(0.053 8.799)"/>
      <path id="Path_290" data-name="Path 290" class="cls-17" d="M19.232,83.8H533.265l18.623,16.336H.5Z" transform="translate(0.045 7.463)"/>
      <g id="Group_187" data-name="Group 187" class="cls-14" transform="translate(341.527 11.762)">
        <g id="Group_186" data-name="Group 186">
          <g id="Group_185" data-name="Group 185" class="cls-18">
            <path id="Path_291" data-name="Path 291" class="cls-9" d="M314.464,10.8h0a.659.659,0,0,1,.653.327l48.79,77.867a.764.764,0,0,1-.653,1.2h-48.79a.744.744,0,0,1-.762-.762V11.671a.772.772,0,0,1,.762-.871" transform="translate(-313.592 -10.8)"/>
          </g>
        </g>
      </g>
      <g id="Group_190" data-name="Group 190" class="cls-14" transform="translate(148.765 11.435)">
        <g id="Group_189" data-name="Group 189">
          <g id="Group_188" data-name="Group 188" class="cls-19">
            <path id="Path_292" data-name="Path 292" class="cls-9" d="M136.821,88.041l48.136-76.887a1.2,1.2,0,0,1,1.089-.653,1.258,1.258,0,0,1,1.307,1.307V88.694A1.258,1.258,0,0,1,186.047,90H137.91a1.226,1.226,0,0,1-1.089-1.96" transform="translate(-136.604 -10.5)"/>
          </g>
        </g>
      </g>
      <path id="Path_293" data-name="Path 293" class="cls-4" d="M53.8,153.439H6.752A6.786,6.786,0,0,1,0,146.686v-6.534A6.786,6.786,0,0,1,6.752,133.4H53.908a7.762,7.762,0,0,1,7.732,7.732v4.356a7.833,7.833,0,0,1-7.841,7.95" transform="translate(0 11.88)"/>
      <path id="Path_294" data-name="Path 294" class="cls-20" d="M333.7,89.817h29.949l3.267-17.534L350.363,62.7Z" transform="translate(29.717 5.584)"/>
      <path id="Path_295" data-name="Path 295" class="cls-4" d="M38.4,116.159a8.059,8.059,0,1,0,8.059-8.059,8.041,8.041,0,0,0-8.059,8.059" transform="translate(3.42 9.627)"/>
      <path id="Path_296" data-name="Path 296" class="cls-4" d="M453.333,153.739h45.849a6.554,6.554,0,0,0,6.534-6.534v-6.97a6.554,6.554,0,0,0-6.534-6.534H453.333a7.762,7.762,0,0,0-7.732,7.732v4.356a7.677,7.677,0,0,0,7.732,7.95" transform="translate(39.682 11.907)"/>
      <path id="Path_297" data-name="Path 297" class="cls-21" d="M486.3,136.917,498.933,98.8h9.693l-12.633,38.117Z" transform="translate(43.307 8.799)"/>
      <path id="Path_298" data-name="Path 298" class="cls-22" d="M28.624,136.617,15.991,98.5H.2l12.633,38.117Z" transform="translate(0.018 8.772)"/>
      <path id="Path_299" data-name="Path 299" class="cls-23" d="M291.514,45.775l-.871.218a1.623,1.623,0,0,1-1.96-1.2L286.5,36.082a1.623,1.623,0,0,1,1.2-1.96l.871-.218a1.623,1.623,0,0,1,1.96,1.2l2.178,8.712a1.623,1.623,0,0,1-1.2,1.96" transform="translate(25.51 3.015)"/>
      <path id="Path_300" data-name="Path 300" class="cls-24" d="M294.625,37.013A24.613,24.613,0,1,1,270.013,12.4a24.587,24.587,0,0,1,24.613,24.613" transform="translate(21.854 1.104)"/>
      <path id="Path_301" data-name="Path 301" class="cls-20" d="M301.4,16.924a46.277,46.277,0,0,1-33.325,14.049s-7.406-.653-7.406,5.663v4.9s-.218,2.723-2.5,2.723a3.387,3.387,0,0,1-3.267-3.267c0-1.089.98-5.99-2.069-5.99s-5.01,11.653-5.01,11.653-7.514-9.91-7.514-17.643,7.079-15.247,13.286-15.247C257.725,10.608,258.923,4.4,269.6,4.4c18.514,0,22.979,11.108,27.771,11.108,4.9-.109,4.029,1.416,4.029,1.416" transform="translate(21.4 0.392)"/>
      <path id="Path_302" data-name="Path 302" class="cls-20" d="M284.656,33.278a2.178,2.178,0,1,1-2.178-2.178,2.117,2.117,0,0,1,2.178,2.178" transform="translate(24.962 2.77)"/>
      <path id="Path_303" data-name="Path 303" class="cls-25" d="M264.437,59.5S254.2,59.5,254.2,70.391V86.4l27.226.545-6.97-25.811s-1.2-1.634-10.019-1.634" transform="translate(22.638 5.299)"/>
      <path id="Path_304" data-name="Path 304" class="cls-25" d="M270.8,63.2c.762,0,12.089,11.108,21.237,11.108s37.681-8.6,37.681-8.6v8.6s2.178,3.7-3.921,4.029c-8.93.545-52.6,7.079-52.6,7.079Z" transform="translate(24.116 5.628)"/>
      <path id="Path_305" data-name="Path 305" class="cls-24" d="M265.814,63.469h0a2.65,2.65,0,0,1-2.614-2.614V53.014a2.614,2.614,0,1,1,5.227,0v7.841a2.58,2.58,0,0,1-2.614,2.614" transform="translate(23.439 4.488)"/>
      <rect id="Rectangle_68" data-name="Rectangle 68" class="cls-20" width="35.394" height="5.772" transform="translate(342.872 90.599) rotate(-60.02)"/>
      <path id="Path_306" data-name="Path 306" class="cls-26" d="M251.191,95.644l-3.376.109a6,6,0,0,1-6.317-5.772l-1.2-26.355a6,6,0,0,1,5.772-6.317l3.376-.109a6,6,0,0,1,6.317,5.772l1.2,26.355a5.935,5.935,0,0,1-5.772,6.317" transform="translate(21.4 5.094)"/>
      <path id="Path_307" data-name="Path 307" class="cls-17" d="M397.3,91.263l-50.859-79.5A25.5,25.5,0,0,0,324.982,0H194.513a25.5,25.5,0,0,0-21.454,11.762L122.2,91.263h1.416V105.2H413.522V91.263Zm-257.561,0a1.332,1.332,0,0,1-1.089-2.069l48.136-76.887a1.2,1.2,0,0,1,1.089-.653,1.258,1.258,0,0,1,1.307,1.307V89.738a1.258,1.258,0,0,1-1.307,1.307H139.734Zm62.076,0a4.6,4.6,0,0,1-4.574-4.574V16.336a4.6,4.6,0,0,1,4.574-4.574H317.685a4.509,4.509,0,0,1,4.465,4.574V86.8a4.581,4.581,0,0,1-4.465,4.574H201.81Zm129.706,0a.744.744,0,0,1-.762-.762V12.633a.744.744,0,0,1,.762-.762.659.659,0,0,1,.653.327l48.79,77.867a.764.764,0,0,1-.653,1.2h-48.79Z" transform="translate(10.882)"/>
      <g id="Group_193" data-name="Group 193" class="cls-27" transform="translate(341.201 90.936)">
        <g id="Group_192" data-name="Group 192">
          <g id="Group_191" data-name="Group 191" class="cls-28">
            <rect id="Rectangle_69" data-name="Rectangle 69" class="cls-9" width="4.465" height="98.233"/>
          </g>
        </g>
      </g>
      <g id="Group_196" data-name="Group 196" class="cls-27" transform="translate(196.574 90.936)">
        <g id="Group_195" data-name="Group 195">
          <g id="Group_194" data-name="Group 194" class="cls-29">
            <rect id="Rectangle_71" data-name="Rectangle 71" class="cls-9" width="2.94" height="98.233"/>
          </g>
        </g>
      </g>
      <path id="Path_308" data-name="Path 308" class="cls-4" d="M208.067,94.786h21.128a3.276,3.276,0,0,0,3.267-3.267V89.667a3.276,3.276,0,0,0-3.267-3.267H208.067a3.276,3.276,0,0,0-3.267,3.267v1.851a3.428,3.428,0,0,0,3.267,3.267" transform="translate(18.238 7.694)"/>
      <rect id="Rectangle_73" data-name="Rectangle 73" class="cls-20" width="3.267" height="17.752" transform="translate(353.635 78.268) rotate(-60.02)"/>
      <g id="Group_199" data-name="Group 199" class="cls-30" transform="translate(212.583 11.435)">
        <g id="Group_198" data-name="Group 198">
          <g id="Group_197" data-name="Group 197" class="cls-31">
            <path id="Path_309" data-name="Path 309" class="cls-9" d="M195.2,10.5H311.075a4.6,4.6,0,0,1,4.574,4.574V85.536" transform="translate(-195.2 -10.5)"/>
          </g>
        </g>
      </g>
      <g id="Group_202" data-name="Group 202" class="cls-30" transform="translate(341.527 11.762)">
        <g id="Group_201" data-name="Group 201">
          <g id="Group_200" data-name="Group 200" class="cls-18">
            <path id="Path_310" data-name="Path 310" class="cls-9" d="M314.464,10.8h0a.659.659,0,0,1,.653.327l48.79,77.867a.764.764,0,0,1-.653,1.2h-48.79a.744.744,0,0,1-.762-.762V11.671a.772.772,0,0,1,.762-.871" transform="translate(-313.592 -10.8)"/>
          </g>
        </g>
      </g>
    </g>
    <g id="Group_203" data-name="Group 203" transform="translate(26.515 466.725)">
      <g id="Group_240" data-name="Group 240" transform="translate(374.683 1069.594)">
        <g id="Group_239" data-name="Group 239" transform="translate(0 0)">
          <g id="Group_203-2" data-name="Group 203" transform="translate(0 0)">
            <circle id="Ellipse_53" data-name="Ellipse 53" class="cls-16" cx="51.407" cy="51.407" r="51.407" transform="matrix(0.998, -0.061, 0.061, 0.998, 53.619, 59.847)"/>
            <line id="Line_36" data-name="Line 36" class="cls-32" x2="2.167" y2="35.573" transform="translate(101.488)"/>
            <line id="Line_37" data-name="Line 37" class="cls-32" x2="26.688" y2="23.626" transform="translate(27.011 36.289)"/>
            <line id="Line_38" data-name="Line 38" class="cls-32" y1="2.149" x2="35.573" transform="translate(0 112.45)"/>
            <line id="Line_39" data-name="Line 39" class="cls-32" x1="35.573" y2="2.167" transform="translate(180.532 101.488)"/>
            <line id="Line_40" data-name="Line 40" class="cls-32" x1="23.626" y2="26.688" transform="translate(156.19 27.011)"/>
          </g>
          <g id="Group_238" data-name="Group 238" transform="translate(63.636 31.88)">
            <g id="Group_237" data-name="Group 237">
              <path id="Path_311" data-name="Path 311" class="cls-33" d="M397.742,347.13a21.87,21.87,0,0,1-13.631-39.889l-5.839-97.959a11.223,11.223,0,0,1,22.408-1.325l5.839,97.959a21.861,21.861,0,0,1-8.777,41.215Z" transform="translate(-374.578 -197.368)"/>
              <path id="Path_312" data-name="Path 312" class="cls-34" d="M426.617,334.844a19.523,19.523,0,1,1-29.393-15.673l-5.929-99.338a8.891,8.891,0,1,1,17.751-1.057l5.929,99.338A19.52,19.52,0,0,1,426.617,334.844Z" transform="translate(-385.273 -208.062)"/>
              <path id="Path_313" data-name="Path 313" class="cls-35" d="M420.556,258.851l-3.045-50.995a11.223,11.223,0,1,0-22.408,1.325l3.135,54.971Z" transform="translate(-391.41 -197.286)"/>
              <g id="Group_206" data-name="Group 206" transform="translate(11.521 103.335)">
                <g id="Group_204" data-name="Group 204" class="cls-36" transform="translate(0.179 0.179)">
                  <line id="Line_41" data-name="Line 41" class="cls-37" y1="0.519" x2="8.866"/>
                </g>
                <g id="Group_205" data-name="Group 205" transform="translate(0 0)">
                  <line id="Line_42" data-name="Line 42" class="cls-38" y1="0.519" x2="8.866"/>
                </g>
              </g>
              <g id="Group_209" data-name="Group 209" transform="translate(8.87 58.968)">
                <g id="Group_207" data-name="Group 207" class="cls-36" transform="translate(0.179 0.179)">
                  <line id="Line_43" data-name="Line 43" class="cls-37" y1="0.519" x2="8.866"/>
                </g>
                <g id="Group_208" data-name="Group 208">
                  <line id="Line_44" data-name="Line 44" class="cls-38" y1="0.519" x2="8.866"/>
                </g>
              </g>
              <g id="Group_212" data-name="Group 212" transform="translate(11.02 95.472)">
                <g id="Group_210" data-name="Group 210" class="cls-36" transform="translate(0.179 0.179)">
                  <line id="Line_45" data-name="Line 45" class="cls-39" y1="0.215" x2="3.744"/>
                </g>
                <g id="Group_211" data-name="Group 211">
                  <line id="Line_46" data-name="Line 46" class="cls-40" y1="0.215" x2="3.744"/>
                </g>
              </g>
              <g id="Group_215" data-name="Group 215" transform="translate(10.482 86.355)">
                <g id="Group_213" data-name="Group 213" class="cls-36" transform="translate(0.179 0.179)">
                  <line id="Line_47" data-name="Line 47" class="cls-39" y1="0.233" x2="3.744"/>
                </g>
                <g id="Group_214" data-name="Group 214">
                  <line id="Line_48" data-name="Line 48" class="cls-40" y1="0.233" x2="3.744"/>
                </g>
              </g>
              <g id="Group_218" data-name="Group 218" transform="translate(9.963 77.488)">
                <g id="Group_216" data-name="Group 216" class="cls-36" transform="translate(0.179 0.179)">
                  <line id="Line_49" data-name="Line 49" class="cls-39" y1="0.215" x2="3.726"/>
                </g>
                <g id="Group_217" data-name="Group 217">
                  <line id="Line_50" data-name="Line 50" class="cls-40" y1="0.215" x2="3.726"/>
                </g>
              </g>
              <g id="Group_221" data-name="Group 221" transform="translate(9.443 68.837)">
                <g id="Group_219" data-name="Group 219" class="cls-36" transform="translate(0.179 0.179)">
                  <line id="Line_51" data-name="Line 51" class="cls-39" y1="0.233" x2="3.726"/>
                </g>
                <g id="Group_220" data-name="Group 220">
                  <line id="Line_52" data-name="Line 52" class="cls-40" y1="0.233" x2="3.726"/>
                </g>
              </g>
              <g id="Group_224" data-name="Group 224" transform="translate(6.255 15.066)">
                <g id="Group_222" data-name="Group 222" class="cls-36" transform="translate(0.179 0.179)">
                  <line id="Line_53" data-name="Line 53" class="cls-37" y1="0.537" x2="8.866"/>
                </g>
                <g id="Group_223" data-name="Group 223">
                  <line id="Line_54" data-name="Line 54" class="cls-38" y1="0.537" x2="8.866"/>
                </g>
              </g>
              <g id="Group_227" data-name="Group 227" transform="translate(8.405 51.57)">
                <g id="Group_225" data-name="Group 225" class="cls-36" transform="translate(0.179 0.179)">
                  <line id="Line_55" data-name="Line 55" class="cls-39" y1="0.215" x2="3.744"/>
                </g>
                <g id="Group_226" data-name="Group 226">
                  <line id="Line_56" data-name="Line 56" class="cls-40" y1="0.215" x2="3.744"/>
                </g>
              </g>
              <g id="Group_230" data-name="Group 230" transform="translate(7.867 42.453)">
                <g id="Group_228" data-name="Group 228" class="cls-36" transform="translate(0.179 0.179)">
                  <line id="Line_57" data-name="Line 57" class="cls-39" y1="0.233" x2="3.726"/>
                </g>
                <g id="Group_229" data-name="Group 229">
                  <line id="Line_58" data-name="Line 58" class="cls-40" y1="0.233" x2="3.726"/>
                </g>
              </g>
              <g id="Group_233" data-name="Group 233" transform="translate(7.33 33.587)">
                <g id="Group_231" data-name="Group 231" class="cls-36" transform="translate(0.179 0.179)">
                  <line id="Line_59" data-name="Line 59" class="cls-39" y1="0.233" x2="3.744"/>
                </g>
                <g id="Group_232" data-name="Group 232">
                  <line id="Line_60" data-name="Line 60" class="cls-40" y1="0.233" x2="3.744"/>
                </g>
              </g>
              <g id="Group_236" data-name="Group 236" transform="translate(6.81 24.954)">
                <g id="Group_234" data-name="Group 234" class="cls-36" transform="translate(0.179 0.179)">
                  <line id="Line_61" data-name="Line 61" class="cls-39" y1="0.215" x2="3.744"/>
                </g>
                <g id="Group_235" data-name="Group 235">
                  <line id="Line_62" data-name="Line 62" class="cls-40" y1="0.215" x2="3.744"/>
                </g>
              </g>
              <path id="Path_314" data-name="Path 314" class="cls-33" d="M418.251,323.924a21.894,21.894,0,0,0-11.732-18.109l-5.839-97.959a11.223,11.223,0,1,0-22.408,1.325l5.839,97.959a21.863,21.863,0,1,0,34.14,16.783Zm-20.652,20.8a19.531,19.531,0,0,1-11.069-36.325L380.6,209.056A8.891,8.891,0,1,1,398.351,208l5.929,99.338a19.528,19.528,0,0,1-6.681,37.382Z" transform="translate(-374.578 -197.286)"/>
            </g>
          </g>
          <text id="_7_C" data-name="+7°C" class="cls-41" transform="matrix(0.998, -0.07, 0.07, 0.998, 96.846, 90.605)"><tspan x="0" y="20">+7°C</tspan></text>
        </g>
      </g>
    </g>
  </g>
</svg>
