<svg xmlns="http://www.w3.org/2000/svg" xmlns:xlink="http://www.w3.org/1999/xlink" viewBox="-550.479 1642.785 82.838 108.537">
  <defs>
    <style>
      .cls-1 {
        fill: #2a2a2a;
      }

      .cls-2 {
        fill: #4e4e4e;
      }

      .cls-3 {
        fill: #8fa6ae;
      }

      .cls-4 {
        opacity: 0.2;
      }

      .cls-5 {
        clip-path: url(#clip-path);
      }

      .cls-6 {
        fill: #fff;
      }

      .cls-7 {
        fill: #f2f2f2;
      }

      .cls-8 {
        fill: #3a3b3b;
      }

      .cls-9 {
        fill: #989898;
      }

      .cls-10 {
        fill: #010101;
      }

      .cls-11 {
        fill: #4089c9;
      }

      .cls-12 {
        fill: #5dbc63;
      }

      .cls-13 {
        fill: #dca833;
      }

      .cls-14 {
        fill: #d83736;
      }

      .cls-15 {
        fill: none;
        stroke: #231f20;
        stroke-miterlimit: 10;
        stroke-width: 13px;
      }
    </style>
    <clipPath id="clip-path">
      <rect id="Rectangle_38" data-name="Rectangle 38" width="23.299" height="22.94" transform="matrix(0.04, -0.999, 0.999, 0.04, 0, 23.28)"/>
    </clipPath>
  </defs>
  <g id="Group_95" data-name="Group 95" transform="translate(-554.077 1642.765)">
    <path id="Path_145" data-name="Path 145" class="cls-1" d="M66.347,146.148c.55-.431,1.124-.861,1.722-1.268a1.247,1.247,0,0,1,.526-1.2l.048-.024a39.913,39.913,0,0,1,3.827-2.129,1.31,1.31,0,0,1,1.316.167c.646-.287,1.316-.55,1.962-.765a1.223,1.223,0,0,1,.813-1.029,37.459,37.459,0,0,1,4.282-1.1,1.289,1.289,0,0,1,1.244.5c.694-.1,1.411-.191,2.105-.287a1.223,1.223,0,0,1,1.053-.789,34.89,34.89,0,0,1,4.473-.024,1.357,1.357,0,0,1,1.124.789c.718.072,1.435.144,2.105.263a1.187,1.187,0,0,1,1.22-.5,38.955,38.955,0,0,1,4.378,1.076,1.328,1.328,0,0,1,.909,1.053c.67.263,1.363.478,2.009.765a1.2,1.2,0,0,1,1.316-.191,38.148,38.148,0,0,1,4.043,2.105,1.358,1.358,0,0,1,.646,1.22c.6.383,1.22.813,1.818,1.2a1.31,1.31,0,0,1,1.316.12,41.169,41.169,0,0,1,3.469,3.014,1.364,1.364,0,0,1,.359,1.316c.5.55,1,1.053,1.483,1.627a1.323,1.323,0,0,1,1.268.455c.957,1.2,1.866,2.464,2.7,3.732a1.288,1.288,0,0,1,.048,1.34c.383.646.742,1.292,1.076,1.914a1.3,1.3,0,0,1,1.124.765,40.813,40.813,0,0,1,1.794,4.234,1.164,1.164,0,0,1-.287,1.292c.215.718.454,1.411.622,2.129a1.333,1.333,0,0,1,.933,1,42.374,42.374,0,0,1,.742,4.521,1.262,1.262,0,0,1-.574,1.2c.048.718.072,1.435.1,2.177a1.3,1.3,0,0,1,.67,1.172,36.313,36.313,0,0,1-.335,4.545,1.182,1.182,0,0,1-.861,1c-.12.694-.239,1.411-.431,2.105a1.308,1.308,0,0,1,.407,1.316,37.262,37.262,0,0,1-1.387,4.282,1.186,1.186,0,0,1-1.076.742c-.287.646-.6,1.292-.909,1.938a1.327,1.327,0,0,1,.072,1.364,38.137,38.137,0,0,1-2.368,3.756,1.127,1.127,0,0,1-1.22.454c-.431.55-.861,1.1-1.363,1.651a1.262,1.262,0,0,1-.239,1.316,31.683,31.683,0,0,1-3.205,3.014,1.169,1.169,0,0,1-1.292.144c-.55.431-1.124.861-1.722,1.268a1.247,1.247,0,0,1-.526,1.2l-.048.048a35.647,35.647,0,0,1-3.851,2.129,1.31,1.31,0,0,1-1.316-.167c-.646.287-1.316.55-1.962.765a1.238,1.238,0,0,1-.789,1.029,37.456,37.456,0,0,1-4.282,1.1,1.289,1.289,0,0,1-1.244-.5c-.694.1-1.411.191-2.105.287a1.223,1.223,0,0,1-1.053.789,34.89,34.89,0,0,1-4.473.024,1.285,1.285,0,0,1-1.029-.622.6.6,0,0,1-.1-.167c-.718-.072-1.435-.144-2.105-.263a1.187,1.187,0,0,1-1.22.5,38.959,38.959,0,0,1-4.378-1.076,1.452,1.452,0,0,1-.742-.55.85.85,0,0,1-.191-.478c-.67-.263-1.363-.478-2.009-.765a1.2,1.2,0,0,1-1.316.191,38.155,38.155,0,0,1-4.043-2.105.939.939,0,0,1-.431-.431,1.257,1.257,0,0,1-.191-.789c-.6-.383-1.22-.813-1.818-1.2a1.31,1.31,0,0,1-1.316-.12,41.168,41.168,0,0,1-3.469-3.014,1.677,1.677,0,0,1-.191-.239,1.33,1.33,0,0,1-.167-1.076c-.5-.55-1-1.053-1.483-1.627a1.323,1.323,0,0,1-1.268-.454,41.177,41.177,0,0,1-2.679-3.756,1.277,1.277,0,0,1-.024-1.363c-.383-.646-.742-1.292-1.076-1.914a1.3,1.3,0,0,1-1.053-.622.8.8,0,0,0-.072-.144,36.033,36.033,0,0,1-1.77-4.234,1.164,1.164,0,0,1,.287-1.292c-.215-.718-.431-1.387-.622-2.129a1.423,1.423,0,0,1-.957-1,42.373,42.373,0,0,1-.742-4.521,1.262,1.262,0,0,1,.574-1.2c-.048-.718-.072-1.435-.1-2.177a1.45,1.45,0,0,1-.478-.454,1.156,1.156,0,0,1-.191-.742,41.487,41.487,0,0,1,.335-4.545,1.175,1.175,0,0,1,.885-1c.12-.694.239-1.411.431-2.105a.653.653,0,0,1-.215-.287,1.356,1.356,0,0,1-.167-1.053,37.258,37.258,0,0,1,1.387-4.282,1.161,1.161,0,0,1,1.076-.742c.287-.646.6-1.292.909-1.938-.024,0-.024,0-.048-.024a1.335,1.335,0,0,1-.072-1.34,38.134,38.134,0,0,1,2.368-3.756,1.127,1.127,0,0,1,1.22-.455c.431-.55.861-1.1,1.363-1.651a1.212,1.212,0,0,1,.239-1.292,31.682,31.682,0,0,1,3.205-3.014,1.213,1.213,0,0,1,1.244-.12m4.067,41.742c6.913,10.836,20.883,14.281,31.265,7.679,10.358-6.6,13.18-20.739,6.243-31.576-6.913-10.836-20.883-14.281-31.265-7.679-10.334,6.578-13.133,20.715-6.243,31.576" transform="translate(-39.69 -105.085)"/>
    <path id="Path_146" data-name="Path 146" class="cls-2" d="M153.851,211.087c6.913,10.836,4.114,24.949-6.243,31.576-10.358,6.578-24.351,3.134-31.241-7.7s-4.114-24.95,6.243-31.576c10.358-6.578,24.351-3.134,31.241,7.7m-23.108-8.444a18.627,18.627,0,0,0-6.841,2.7c-9.305,5.932-11.841,18.706-5.621,28.466s18.85,12.869,28.155,6.913c9.305-5.932,11.841-18.706,5.621-28.466a21.285,21.285,0,0,0-16.314-9.879,20.459,20.459,0,0,0-5,.263" transform="translate(-85.643 -152.179)"/>
    <path id="Path_147" data-name="Path 147" class="cls-3" d="M129.152,211.749c-9.449,6.028-12.008,18.945-5.717,28.825s19.089,13.037,28.514,7.009c9.449-6.028,12.008-18.945,5.717-28.825-6.267-9.9-19.041-13.037-28.514-7.009" transform="translate(-91.276 -158.75)"/>
    <g id="Group_80" data-name="Group 80" class="cls-4" transform="translate(42.129 53.591)">
      <g id="Group_79" data-name="Group 79" transform="translate(0 0)">
        <g id="Group_78" data-name="Group 78" class="cls-5" transform="translate(0)">
          <path id="Path_148" data-name="Path 148" class="cls-6" d="M197.132,247.408a13.974,13.974,0,0,1-3.038,1.962A11.956,11.956,0,0,0,179,231.739a12.817,12.817,0,0,1,2.416-2.7,12.353,12.353,0,0,1,17.486.957c4.33,5.047,3.54,12.869-1.77,17.414" transform="translate(-178.302 -225.418)"/>
        </g>
      </g>
    </g>
    <g id="Group_94" data-name="Group 94" transform="translate(10.098 0.02)">
      <circle id="Ellipse_8" data-name="Ellipse 8" class="cls-7" cx="12.606" cy="12.606" r="12.606" transform="translate(6.823 1.407)"/>
      <path id="Path_149" data-name="Path 149" class="cls-8" d="M70.013,24.893a15.435,15.435,0,0,1-1.89-1.866,14.042,14.042,0,1,1,1.89,1.866ZM85.968,5.349a11.221,11.221,0,1,0,.072,17.295A11.22,11.22,0,0,0,87.451,6.856a11.04,11.04,0,0,0-1.483-1.507Z" transform="translate(-59.434 -0.02)"/>
      <path id="Path_150" data-name="Path 150" class="cls-9" d="M82.7,149.68l-4.4-1.6,1.2-3.277,4.4,1.6Z" transform="translate(-69.659 -110.167)"/>
      <path id="Path_151" data-name="Path 151" class="cls-10" d="M87.448,35.044c0,.048-.024.072-.048.144.215.072.431.167.646.239,0-.048.048-.072.048-.12C87.9,35.235,87.687,35.14,87.448,35.044ZM89.1,32.508c-.024.048-.072.072-.072.1.144.144.287.239.431.383.024-.048.072-.072.072-.1C89.385,32.748,89.218,32.628,89.1,32.508Zm-1.268,2.033c0,.024,0,.048-.024.048.167.072.359.144.5.215a.084.084,0,0,1,.024-.048C88.189,34.685,88,34.637,87.831,34.542Zm.263-.55a.084.084,0,0,1-.024.048,4.745,4.745,0,0,0,.478.263.084.084,0,0,1,.024-.048C88.429,34.183,88.261,34.087,88.094,33.992Zm.311-.526a.051.051,0,0,1-.048.048,2.925,2.925,0,0,0,.454.287.084.084,0,0,1,.024-.048C88.716,33.657,88.548,33.561,88.4,33.465Zm.335-.5a.051.051,0,0,1-.048.048,4.283,4.283,0,0,0,.431.335.084.084,0,0,1,.024-.048,4.243,4.243,0,0,1-.407-.335Zm.718-.837a.084.084,0,0,1-.024.048c.144.144.287.263.407.407a.084.084,0,0,1,.024-.048C89.7,32.389,89.577,32.245,89.457,32.126Zm.383-.407a.084.084,0,0,1-.024.048c.144.144.239.287.359.407,0-.024,0-.024.024-.048A3.1,3.1,0,0,1,89.84,31.719Zm.383-.335a.084.084,0,0,1-.024.048c.12.144.215.287.359.454,0-.024,0-.024.024-.048C90.462,31.647,90.342,31.552,90.223,31.384Zm.431-.311c0,.024,0,.024-.048.024a5.125,5.125,0,0,1,.311.454c0-.024,0-.024.048-.024A5.123,5.123,0,0,1,90.653,31.073Zm.383-.431c-.048.024-.048.048-.12.048.12.215.263.383.383.622.048-.024.048-.048.12-.048C91.275,31.049,91.156,30.834,91.036,30.643Zm2.392-.742c-.024,0-.072.024-.1,0,.048.167.1.335.144.55.024,0,.072-.024.1,0C93.524,30.26,93.476,30.069,93.428,29.9Zm-1.914.646c0,.024-.024,0-.048.024.1.144.167.335.263.5,0-.024.024,0,.048-.024C91.682,30.882,91.61,30.714,91.514,30.547Zm.478-.215c0,.024-.024,0-.048.024a5.119,5.119,0,0,0,.239.526c0-.024.024,0,.048-.024A2.564,2.564,0,0,1,91.993,30.332Zm.454-.191c0,.024-.024,0-.048.024.072.167.12.359.191.526,0-.024.024,0,.048-.024C92.591,30.523,92.5,30.332,92.447,30.14Zm.478-.12c0,.024-.024,0-.048.024a4.3,4.3,0,0,1,.144.526c0-.024.024,0,.048-.024A3.382,3.382,0,0,0,92.926,30.021Zm.957-.239c0,.024-.024,0-.048.024a4.524,4.524,0,0,0,.12.55c0-.024.024,0,.048-.024C93.954,30.14,93.93,29.973,93.883,29.781Zm.5-.048c-.024,0-.024,0-.048.024a4.787,4.787,0,0,0,.1.574h.024C94.433,30.116,94.409,29.925,94.385,29.734Zm.478-.024h-.048c.024.191.024.383.048.55h.048C94.887,30.069,94.887,29.877,94.863,29.71Zm.526-.024h-.048v.55h.048A4.2,4.2,0,0,1,95.39,29.686Zm.5-.12c-.024,0-.072-.024-.1,0-.024.239-.024.478-.048.694.024,0,.072.024.1,0C95.868,30.045,95.868,29.805,95.892,29.566Zm2.44.718c-.048,0-.048-.024-.1-.024-.048.167-.12.335-.191.526.048,0,.048.024.1.024C98.188,30.643,98.26,30.475,98.332,30.284Zm-1.962-.5h-.048a4.27,4.27,0,0,0-.048.55h.048A2.235,2.235,0,0,1,96.37,29.781Zm.5.1h-.048a4.416,4.416,0,0,0-.1.55h.048A1.884,1.884,0,0,1,96.873,29.877Zm.454.1h-.048a4.525,4.525,0,0,0-.12.55h.048A3.717,3.717,0,0,1,97.327,29.973Zm.478.144h-.048a4.662,4.662,0,0,0-.144.55h.048C97.71,30.475,97.758,30.308,97.806,30.116Zm.957.335h-.048a4.872,4.872,0,0,1-.215.526h.048A4.87,4.87,0,0,1,98.762,30.451Zm.455.215h-.048a3.242,3.242,0,0,0-.239.5h.048A3.241,3.241,0,0,1,99.217,30.667Zm.431.239c-.024,0-.024,0-.048-.024a4.745,4.745,0,0,0-.263.478c.024,0,.024,0,.048.024C99.48,31.217,99.552,31.049,99.648,30.906Zm.431.239c-.024,0-.024,0-.048-.024-.1.167-.191.287-.287.454.024,0,.024,0,.048.024C99.863,31.456,99.982,31.312,100.078,31.145Zm.526.191a.179.179,0,0,1-.072-.072c-.144.191-.287.359-.431.55.048.024.048.048.072.072C100.317,31.719,100.437,31.5,100.6,31.336Zm1.674,1.842c-.048-.024-.048-.048-.072-.1-.144.12-.287.215-.454.359.048.024.048.048.072.1A4.9,4.9,0,0,1,102.279,33.178Zm-1.411-1.435c-.024,0-.024,0-.048-.024-.144.144-.239.287-.359.431.024,0,.024,0,.048.024C100.628,32.006,100.772,31.863,100.867,31.743Zm.407.335c-.024,0-.024,0-.048-.024-.144.144-.263.287-.383.383.024,0,.024,0,.048.024A2.893,2.893,0,0,1,101.274,32.078Zm.335.311c-.024,0-.024,0-.048-.024l-.383.383c.024,0,.024,0,.048.024Zm.359.383c-.024,0-.024,0-.048-.024-.144.12-.287.215-.431.359.024,0,.024,0,.048.024A2.02,2.02,0,0,1,101.968,32.772Zm.6.765c-.024,0-.024,0-.024-.048-.167.1-.311.215-.478.311.024,0,.024,0,.024.048A5.412,5.412,0,0,0,102.566,33.537Zm.239.431c-.024,0,0-.024-.024-.048-.144.1-.335.191-.478.287.024,0,.024,0,.024.048C102.494,34.159,102.662,34.063,102.805,33.968Zm.287.455c-.024,0,0-.024-.024-.048-.167.072-.335.167-.5.239.024,0,0,.024.024.048A3.325,3.325,0,0,1,103.092,34.422Zm.191.454c-.024,0,0-.024-.024-.048a5.12,5.12,0,0,0-.526.239c.024,0,0,.024.024.048A3.523,3.523,0,0,1,103.283,34.877Zm.167,6c0,.048-.024.072-.048.144-.215-.072-.431-.167-.646-.239,0-.048.024-.072.048-.12C103.02,40.737,103.212,40.809,103.451,40.881Zm.407-2.99c0,.048-.024.072,0,.144a4.219,4.219,0,0,1-.55,0c0-.024.024-.072,0-.1A1.435,1.435,0,0,1,103.858,37.891Zm-.359,2.368c0,.024,0,.048-.024.048a4.66,4.66,0,0,0-.55-.144v-.048a2.524,2.524,0,0,0,.574.144Zm.144-.6v.048a4.416,4.416,0,0,0-.55-.1v-.048A4.416,4.416,0,0,1,103.642,39.661Zm.12-.6v.048c-.191-.024-.359-.048-.55-.072v-.048C103.379,39.015,103.571,39.039,103.762,39.063Zm.048-.6v.048a4.421,4.421,0,0,0-.55-.024v-.048A2.168,2.168,0,0,0,103.81,38.465Zm.048-1.1c0,.024,0,.024.024.048a4.646,4.646,0,0,1-.574.048c0-.024,0-.024-.024-.048C103.475,37.388,103.666,37.388,103.858,37.364Zm-.072-.526c0,.024,0,.024.024.048a4.788,4.788,0,0,0-.574.1c0-.024,0-.024-.024-.048A1.8,1.8,0,0,1,103.786,36.838Zm-.072-.526c.024,0,0,.024.024.048-.167.048-.359.072-.526.12-.024,0,0-.024-.024-.048A1.878,1.878,0,0,1,103.714,36.312Zm-.12-.526c.024,0,0,.024.024.048a4.3,4.3,0,0,1-.526.144c-.024,0,0-.024-.024-.048A4.3,4.3,0,0,0,103.594,35.786Zm-.024-.574a.216.216,0,0,1,.024.12c-.239.072-.454.144-.694.239,0-.024-.024-.072,0-.1.215-.1.454-.167.67-.263Z" transform="translate(-76.582 -22.49)"/>
      <g id="Group_81" data-name="Group 81" transform="translate(11.249 8.559)">
        <path id="Path_152" data-name="Path 152" class="cls-11" d="M92.908,36.422a7.489,7.489,0,0,0-3.062,3.9c-.215-.072-.431-.167-.646-.239A8.047,8.047,0,0,1,92.525,35.8C92.669,36.039,92.788,36.255,92.908,36.422Z" transform="translate(-89.2 -35.8)"/>
      </g>
      <g id="Group_82" data-name="Group 82" transform="translate(14.55 7.49)">
        <path id="Path_153" data-name="Path 153" class="cls-12" d="M107.617,32.089a7.327,7.327,0,0,0-4.234.957c-.12-.215-.263-.383-.383-.622a7.939,7.939,0,0,1,4.641-1.076,7.2,7.2,0,0,1-.024.742Z" transform="translate(-103 -31.33)"/>
      </g>
      <g id="Group_83" data-name="Group 83" transform="translate(19.166 7.53)">
        <path id="Path_154" data-name="Path 154" class="cls-13" d="M129.309,38.222a7.558,7.558,0,0,0-7.009-6.028c.024-.239.024-.478.048-.694,3.588.287,7.057,2.8,7.655,6.578A3.245,3.245,0,0,1,129.309,38.222Z" transform="translate(-122.3 -31.5)"/>
      </g>
      <g id="Group_84" data-name="Group 84" transform="translate(25.721 14.157)">
        <path id="Path_155" data-name="Path 155" class="cls-14" d="M149.7,63.219a7.744,7.744,0,0,0,.455-3.875c.239-.072.454-.072.694-.144a8.241,8.241,0,0,1-.478,4.258,3.185,3.185,0,0,0-.67-.239Z" transform="translate(-149.7 -59.2)"/>
      </g>
      <g id="Group_85" data-name="Group 85" transform="translate(8.713 24.466)">
        <path id="Path_156" data-name="Path 156" class="cls-8" d="M84.1,115.911,78.6,113.9l4.234-11.6,5.5,2.009Z" transform="translate(-78.6 -102.3)"/>
      </g>
      <g id="Group_86" data-name="Group 86" transform="translate(14.693 30.231)">
        <path id="Path_157" data-name="Path 157" class="cls-8" d="M106.949,128.122,103.6,126.9l.191-.5,3.349,1.22Z" transform="translate(-103.6 -126.4)"/>
      </g>
      <g id="Group_87" data-name="Group 87" transform="translate(16.583 28.748)">
        <path id="Path_158" data-name="Path 158" class="cls-8" d="M113.462,120.2a2.9,2.9,0,1,1-1.962,5.454" transform="translate(-111.5 -120.2)"/>
      </g>
      <g id="Group_88" data-name="Group 88" transform="translate(9.024 11.531)">
        <path id="Path_159" data-name="Path 159" class="cls-10" d="M80.857,49.607a.51.51,0,0,1-.5.048c-.191-.072-.359-.144-.407-.287a.708.708,0,0,1-.048-.239.76.76,0,0,1,.048-.311c.072-.239.144-.431.287-.5a.51.51,0,0,1,.5-.048c.191.072.359.144.407.311a.958.958,0,0,1-.024.574.853.853,0,0,1-.263.454Zm-.144-.933c0-.024-.048-.048-.1-.072a.158.158,0,0,0-.144.024c-.048.048-.048.144-.1.287-.024.072-.024.12-.048.191,0,.048-.024.072-.024.12,0,.024.048.048.1.072a.158.158,0,0,0,.144-.024c.048-.048.048-.144.1-.287A.436.436,0,0,0,80.713,48.674Z" transform="translate(-79.9 -48.226)"/>
      </g>
      <g id="Group_89" data-name="Group 89" transform="translate(13.258 6.358)">
        <path id="Path_160" data-name="Path 160" class="cls-10" d="M97.7,27.94c-.024,0-.024,0-.048-.024-.024,0,0-.024,0-.024l.239-.837c-.048.024-.072.024-.1,0h-.167c-.024,0,0-.024-.024-.048l.072-.287c0-.024,0-.024.024-.048,0-.024,0-.024.024,0h.12c.048,0,.048-.024.072,0,.024,0,.048-.024.072-.024s.048-.048.12-.048l.287.072c.024,0,.024,0,.048.024.024,0,0,.024,0,.024L98.1,27.987c0,.024,0,.024-.024.048,0,.024-.024,0-.024,0l-.359-.1Z" transform="translate(-97.6 -26.6)"/>
      </g>
      <g id="Group_90" data-name="Group 90" transform="translate(18.701 4.817)">
        <path id="Path_161" data-name="Path 161" class="cls-10" d="M120.39,21.195l.024-.048.622-.335a.42.42,0,0,0,.12-.1c.024-.048.048-.048.072-.072,0-.048.024-.072,0-.072-.048-.024-.048-.048-.1-.048a.29.29,0,0,0-.239.024c-.1.048-.167.048-.191.072,0,.024,0,.024-.024,0h-.048V20.6l.072-.335v-.048c0-.024.048-.024.1-.048s.072,0,.144,0a1.563,1.563,0,0,1,.335,0,.654.654,0,0,1,.335.191.343.343,0,0,1,.072.335.486.486,0,0,1-.215.287c-.048.048-.12.072-.144.12-.048.024-.072.048-.12.072,0,.024-.048.024-.048.048s-.048.024-.048.048l.359.1c.024,0,.024,0,.048.024.024,0,0,.024.024.048l-.072.287c0,.024,0,.024-.024.048,0,.024-.024,0-.024,0l-1-.263c-.024,0-.024,0-.048-.024-.024,0,0-.024,0-.024l.024-.263Z" transform="translate(-120.356 -20.156)"/>
      </g>
      <g id="Group_91" data-name="Group 91" transform="translate(24.339 6.826)">
        <path id="Path_162" data-name="Path 162" class="cls-10" d="M144.3,28.614c0-.024,0-.024.024-.048,0-.024.024,0,.024,0l.885.239c.024,0,.024,0,.048.024.024,0,0,.024.024.048l-.072.239v.048l-.335.167a.466.466,0,0,1,.215.215.259.259,0,0,1,0,.263c-.048.144-.1.263-.239.311a.967.967,0,0,1-.455,0,.556.556,0,0,1-.311-.167.523.523,0,0,1-.12-.072c-.048-.024-.048-.048-.048-.072-.024,0-.024,0,0-.024v-.048l.167-.215c0-.024.024-.048.048-.024h.048a.051.051,0,0,1,.048.048c.024,0,.048.048.072.072a.356.356,0,0,0,.215.1c.048,0,.072.024.1,0a.051.051,0,0,0,.048-.048c0-.024-.024-.048-.048-.1a2.132,2.132,0,0,0-.239-.12c-.024,0-.024,0-.048-.024-.024,0,0-.024,0-.024l.048-.191v-.048l.311-.072-.455-.12c-.024,0-.024,0-.048-.024-.024,0,0-.024,0-.024Z" transform="translate(-143.925 -28.556)"/>
      </g>
      <g id="Group_92" data-name="Group 92" transform="translate(27.791 11.347)">
        <path id="Path_163" data-name="Path 163" class="cls-10" d="M159.61,47.514c.024,0,.024,0,.048.024.024,0,0,.024,0,.024l-.191.742.12.024c.024,0,.024,0,.048.024s0,.024,0,.024l-.072.287c0,.024,0,.024-.024.048,0,.024-.024,0-.024,0l-.12-.024-.048.144c0,.024,0,.024-.024.048,0,.024-.024,0-.024,0l-.335-.1c-.024,0-.024,0-.048-.024s0-.024,0-.024l.048-.144-.55-.144c-.024,0-.024,0-.048-.024-.024,0,0-.024,0-.024l.072-.335.813-.6s0-.024.024,0h.024l.311.048Zm-.574.67.1-.335-.359.263Z" transform="translate(-158.356 -47.456)"/>
      </g>
      <g id="Group_93" data-name="Group 93" transform="translate(27.456 18.093)">
        <path id="Path_164" data-name="Path 164" class="cls-10" d="M158.33,76.192c0,.024,0,.024-.024.048s-.024,0-.024,0l-.6-.144-.024.1a592.834,592.834,0,0,1,.144.048,1,1,0,0,1,.239.1,1.041,1.041,0,0,1,.167.144.258.258,0,0,1,.072.167c.024.048,0,.144,0,.215a.486.486,0,0,1-.263.311.88.88,0,0,1-.5,0,1.413,1.413,0,0,1-.335-.144.523.523,0,0,1-.12-.072c-.048-.024-.048-.048-.072-.072-.024,0-.024,0-.024-.048-.024,0,0-.024,0-.048l.167-.215c0-.024.024-.048.048-.024h.048a.074.074,0,0,1,.048.024c.024,0,.048.048.072.072.048.024.072.048.12.072.048,0,.072.048.12.048h.144c.048-.024.048-.048.1-.072,0-.048-.024-.048,0-.1-.048-.024-.072-.072-.12-.072a.466.466,0,0,0-.191-.024h-.048l-.167-.191s-.024,0,0-.024v-.024l.215-.55c0-.024,0-.024.024-.048,0-.024.024,0,.024,0l.861.215c.024,0,.024,0,.048.024.024,0,0,.024.024.048l-.167.239Z" transform="translate(-156.956 -75.656)"/>
      </g>
      <path id="Path_165" data-name="Path 165" class="cls-15" d="M61.605,182.283s5.43,2.751,4.784,7.75a7.059,7.059,0,0,1-7.224,5.956c-9.879-.789-5.023-9.233-4.09-19.783,1.363-15.6-12.654-16.386-12.893-6.172-.311,13.994,12.008,2.44,11.051-8.635" transform="translate(-42.176 -122.796)"/>
      <path id="Path_166" data-name="Path 166" class="cls-8" d="M101.289,55.335a.756.756,0,1,1-.478,1.435C100.4,56.651,94.4,53.9,94.4,53.9S100.883,55.24,101.289,55.335Z" transform="translate(-81.907 -41.011)"/>
    </g>
  </g>
</svg>
