<svg xmlns="http://www.w3.org/2000/svg" viewBox="-852.991 1670.877 81.218 80.747">
  <defs>
    <style>
      .cls-1 {
        fill: #fff;
      }

      .cls-2 {
        fill: #d0d2d3;
      }

      .cls-3 {
        fill: #2a963e;
      }

      .cls-4 {
        fill: #e6e6e6;
      }

      .cls-5 {
        fill: #009042;
      }

      .cls-6 {
        fill: #47a141;
      }

      .cls-7 {
        fill: #2e2a25;
      }

      .cls-8 {
        fill: #898787;
      }

      .cls-9 {
        fill: #95d600;
      }
    </style>
  </defs>
  <g id="Group_96" data-name="Group 96" transform="translate(-852.991 1670.877)">
    <path id="Path_167" data-name="Path 167" class="cls-1" d="M102.207,84.8a27.507,27.507,0,1,0,27.507,27.507,27.177,27.177,0,0,0-1.861-9.927,26.882,26.882,0,0,0-3.223-5.963A27.426,27.426,0,0,0,102.207,84.8" transform="translate(-61.825 -70.185)"/>
    <path id="Path_168" data-name="Path 168" class="cls-2" d="M126.333,83.435c9.6,0,18.011,5.86,22.733,14.667-2.017-12.409-11.427-21.8-22.733-21.8S105.617,85.693,103.6,98.1c4.722-8.807,13.133-14.667,22.733-14.667" transform="translate(-85.744 -63.15)"/>
    <path id="Path_169" data-name="Path 169" class="cls-3" d="M408.165,27.91a3.572,3.572,0,0,0-5.015.483l-6.549,7.98.6.655a38.917,38.917,0,0,1,3.137,3.947l.776,1.12,7.532-9.186a3.537,3.537,0,0,0-.483-5" transform="translate(-328.246 -22.429)"/>
    <path id="Path_170" data-name="Path 170" class="cls-4" d="M161.282,194.441c-.224-.586-.5-1.172-.776-1.741l-4.809,5.86-13.512,16.477a3.514,3.514,0,0,1-2.62,1.293h-.138a3.519,3.519,0,0,1-2.568-1.1l-16.735-17.58a3.463,3.463,0,0,1-.6-.879,3.371,3.371,0,0,0-.224,1.172,3.606,3.606,0,0,0,.982,2.568L137.2,218.277a3.612,3.612,0,0,0,2.6,1.12h.138a3.6,3.6,0,0,0,2.654-1.31l13.667-16.649,5.274-6.429Z" transform="translate(-98.736 -159.488)"/>
    <path id="Path_171" data-name="Path 171" class="cls-5" d="M326.063,157.036A23.63,23.63,0,0,0,323.357,152l-.776-1.1-3.482,4.24a16.169,16.169,0,0,1,.965,2.223h0c.069.207.138.414.207.638.017.034.017.069.034.1.069.207.138.431.19.655v.017c.069.241.121.483.172.724.017.034.017.086.034.121.034.207.086.4.121.6.017.069.017.121.034.19.034.241.069.465.1.707v.052c.034.259.052.517.069.793a1.062,1.062,0,0,0,.017.224c.017.207.017.414.017.62v.241c0,.276,0,.569-.017.862l4.809-5.86.414-.5Z" transform="translate(-264.103 -124.892)"/>
    <path id="Path_172" data-name="Path 172" class="cls-6" d="M153.949,177.823a18.6,18.6,0,0,0-.965-2.223l-14.478,17.666L124.529,178.6a3.557,3.557,0,0,0-2.585-1.1,3.56,3.56,0,0,0-3.55,3.464,3.7,3.7,0,0,0,.362,1.672,4.2,4.2,0,0,0,.6.879l16.735,17.58a3.548,3.548,0,0,0,2.568,1.1h.138a3.574,3.574,0,0,0,2.62-1.293l13.512-16.477a16.766,16.766,0,0,0-.982-6.6" transform="translate(-97.987 -145.335)"/>
    <path id="Path_173" data-name="Path 173" class="cls-7" d="M79.868,43.984c.069-.776.121-1.551.138-2.344a1.371,1.371,0,0,0,.758-1.224v-.034a40.761,40.761,0,0,0-.293-4.826,1.381,1.381,0,0,0-.9-1.12c-.121-.776-.259-1.534-.414-2.292a1.332,1.332,0,0,0,.448-1.379,40.351,40.351,0,0,0-1.448-4.653,1.391,1.391,0,0,0-1.155-.879c-.293-.724-.62-1.431-.948-2.12a1.408,1.408,0,0,0,.121-1.448,42.505,42.505,0,0,0-2.516-4.171,1.361,1.361,0,0,0-1.344-.569c-.465-.62-.931-1.224-1.431-1.827a1.367,1.367,0,0,0-.241-1.448A38.272,38.272,0,0,0,67.2,10.2a1.4,1.4,0,0,0-1.448-.241c-.586-.5-1.206-.965-1.827-1.431a1.361,1.361,0,0,0-.569-1.344,39.534,39.534,0,0,0-4.171-2.534,1.369,1.369,0,0,0-1.448.1c-.689-.345-1.4-.655-2.12-.965a1.362,1.362,0,0,0-.879-1.155,40.35,40.35,0,0,0-4.653-1.448,1.376,1.376,0,0,0-1.379.448c-.758-.155-1.534-.31-2.31-.431a1.325,1.325,0,0,0-1.12-.9A37.209,37.209,0,0,0,40.451,0h0a1.371,1.371,0,0,0-1.224.758c-.793.017-1.568.069-2.344.138a1.371,1.371,0,0,0-1.31-.6,40.4,40.4,0,0,0-4.791.862,1.381,1.381,0,0,0-1.017,1.034c-.758.207-1.5.448-2.241.689A1.358,1.358,0,0,0,26.111,2.6a38.086,38.086,0,0,0-4.447,2,1.355,1.355,0,0,0-.724,1.258c-.672.379-1.344.776-2,1.206a1.374,1.374,0,0,0-1.448.069,42.646,42.646,0,0,0-3.843,3,1.36,1.36,0,0,0-.414,1.4c-.569.534-1.1,1.069-1.637,1.637a1.386,1.386,0,0,0-1.4.4A40.3,40.3,0,0,0,7.187,17.39a1.376,1.376,0,0,0-.069,1.448c-.414.655-.827,1.31-1.206,1.982a1.372,1.372,0,0,0-1.258.724,41.3,41.3,0,0,0-2.017,4.447A1.358,1.358,0,0,0,2.913,27.4c-.259.741-.483,1.482-.707,2.223a1.334,1.334,0,0,0-1.034,1,37.769,37.769,0,0,0-.879,4.791,1.371,1.371,0,0,0,.6,1.31C.827,37.5.776,38.279.758,39.072A1.371,1.371,0,0,0,0,40.3v.069a41.568,41.568,0,0,0,.293,4.86,1.357,1.357,0,0,0,.9,1.12c.121.776.259,1.534.431,2.292a1.365,1.365,0,0,0-.448,1.379A40.349,40.349,0,0,0,2.62,54.67a1.391,1.391,0,0,0,1.155.879c.293.724.62,1.431.965,2.12a1.369,1.369,0,0,0-.1,1.448A39.534,39.534,0,0,0,7.17,63.287a1.39,1.39,0,0,0,1.138.586.839.839,0,0,0,.207-.017c.465.62.931,1.224,1.431,1.827a1.367,1.367,0,0,0,.241,1.431,40.659,40.659,0,0,0,3.447,3.447,1.4,1.4,0,0,0,.913.345,1.471,1.471,0,0,0,.534-.1c.586.5,1.206.965,1.827,1.431a1.394,1.394,0,0,0,.569,1.344,39.535,39.535,0,0,0,4.171,2.534,1.447,1.447,0,0,0,.638.155,1.5,1.5,0,0,0,.81-.259c.689.345,1.4.655,2.12.965a1.362,1.362,0,0,0,.879,1.155,40.35,40.35,0,0,0,4.653,1.448,1.061,1.061,0,0,0,.327.034,1.41,1.41,0,0,0,1.051-.483c.758.155,1.534.31,2.292.431a1.352,1.352,0,0,0,1.12.9,41.567,41.567,0,0,0,4.86.293,1.371,1.371,0,0,0,1.224-.758c.793-.017,1.568-.069,2.344-.138a1.354,1.354,0,0,0,1.138.62.647.647,0,0,0,.172-.017,37.768,37.768,0,0,0,4.791-.879,1.381,1.381,0,0,0,1.017-1.034c.758-.207,1.5-.448,2.223-.689a1.346,1.346,0,0,0,.931.362,1.583,1.583,0,0,0,.483-.086,38.084,38.084,0,0,0,4.447-2,1.372,1.372,0,0,0,.724-1.258c.672-.379,1.344-.776,1.982-1.206a1.319,1.319,0,0,0,.672.19,1.418,1.418,0,0,0,.776-.241,42.643,42.643,0,0,0,3.843-3,1.36,1.36,0,0,0,.414-1.4c.569-.534,1.1-1.086,1.637-1.637a1.344,1.344,0,0,0,.379.052,1.378,1.378,0,0,0,1.034-.465,40.3,40.3,0,0,0,3.016-3.826,1.376,1.376,0,0,0,.069-1.448c.414-.655.827-1.31,1.206-1.982h.034a1.369,1.369,0,0,0,1.224-.741,38.085,38.085,0,0,0,2-4.447,1.358,1.358,0,0,0-.276-1.413c.259-.741.483-1.482.689-2.223a1.331,1.331,0,0,0,1.034-1.017,41.081,41.081,0,0,0,.879-4.791,1.42,1.42,0,0,0-.638-1.293M40.382,64.976A24.595,24.595,0,1,1,64.976,40.382,24.6,24.6,0,0,1,40.382,64.976"/>
    <path id="Path_174" data-name="Path 174" class="cls-8" d="M116.195,91.7a24.595,24.595,0,1,0,24.595,24.595A24.6,24.6,0,0,0,116.195,91.7m20.665,16.58a22.295,22.295,0,1,1-2.6-4.809,22.056,22.056,0,0,1,2.6,4.809" transform="translate(-75.813 -75.895)"/>
    <path id="Path_175" data-name="Path 175" class="cls-9" d="M159.534,208.675a.4.4,0,0,1-.293-.121l-13.96-14.822a.39.39,0,1,1,.569-.534l13.96,14.822a.385.385,0,0,1-.017.552.38.38,0,0,1-.259.1" transform="translate(-120.152 -159.797)"/>
    <path id="Path_176" data-name="Path 176" class="cls-5" d="M243.169,211.088a.513.513,0,0,1-.259-.086.386.386,0,0,1-.052-.552l18.028-21.94a.392.392,0,0,1,.6.5l-18.028,21.94a.4.4,0,0,1-.293.138" transform="translate(-200.926 -155.901)"/>
  </g>
</svg>
