<svg xmlns="http://www.w3.org/2000/svg" viewBox="-645 1032.724 154.1 97.352">
  <defs>
    <style>
      .cls-1 {
        fill: #fff;
      }

      .cls-2 {
        fill: #2a2a2a;
      }

      .cls-3 {
        fill: #b23a38;
      }

      .cls-4 {
        fill: #d7efff;
      }

      .cls-5 {
        fill: #b5403e;
      }
    </style>
  </defs>
  <g id="Group_72" data-name="Group 72" transform="translate(-645 1032.724)">
    <g id="Group_55" data-name="Group 55" transform="translate(12.194 20.788)">
      <path id="Path_120" data-name="Path 120" class="cls-1" d="M120.555,110.288a19.359,19.359,0,0,0-1.374-2.012c-.491-.638-1.03-1.276-1.57-1.865a37.832,37.832,0,0,0-3.484-3.386,52.2,52.2,0,0,0-7.876-5.618,66.432,66.432,0,0,0-8.71-4.244,93.744,93.744,0,0,0-9.176-3.091,126.074,126.074,0,0,0-19.112-3.557c-6.477-.711-13-1.03-19.554-1.2a119.711,119.711,0,0,1,19.677-.319,99.264,99.264,0,0,1,19.5,3.189,78.4,78.4,0,0,1,9.372,3.263l2.257,1.03c.761.343,1.472.736,2.233,1.1.368.172.736.393,1.1.589l1.08.613a6.2,6.2,0,0,1,.54.319l.515.343,1.055.662c.343.221.687.442,1.03.687l1.03.711c.662.491,1.325.981,1.987,1.5l.957.785.466.393.466.417.932.834.883.883a36.261,36.261,0,0,1,3.239,3.754A23.726,23.726,0,0,1,120.555,110.288Z" transform="translate(-49.7 -84.731)"/>
    </g>
    <g id="Group_56" data-name="Group 56">
      <path id="Path_121" data-name="Path 121" class="cls-1" d="M91.292,23.283A25.264,25.264,0,0,0,89.3,20.977,29.572,29.572,0,0,0,87.1,18.891a54.065,54.065,0,0,0-4.784-3.7,62.413,62.413,0,0,0-10.6-5.766A84.6,84.6,0,0,0,60.305,5.5a107.831,107.831,0,0,0-11.85-2.4c-2.012-.245-4-.564-6.011-.711l-1.5-.147c-.491-.049-1.006-.1-1.5-.123-1.006-.049-2.012-.1-3.018-.172-.515-.025-1.006-.074-1.521-.1l-1.521-.049-3.018-.074c-1.006-.025-2.012,0-3.042,0H24.289C16.193,1.889,8.1,2.576,0,3.459A160.794,160.794,0,0,1,24.24.2c2.036-.1,4.1-.172,6.134-.2L33.44.025h1.546c.515,0,1.03.049,1.546.049L39.6.221c.515.025,1.03.074,1.521.123l1.521.123c2.036.147,4.073.442,6.109.687A106.187,106.187,0,0,1,60.8,3.7l2.944.908c.981.319,1.938.687,2.92,1.006.491.172.957.368,1.448.54l1.423.589c.245.1.466.2.711.294l.711.319,1.4.638a14.347,14.347,0,0,1,1.374.687L75.1,9.4c.466.221.908.491,1.349.736s.883.515,1.325.761l1.3.834.662.417.638.442,1.276.883,1.227.932a48.44,48.44,0,0,1,4.612,4.073A29.8,29.8,0,0,1,91.292,23.283Z"/>
    </g>
    <g id="Group_71" data-name="Group 71" transform="translate(85.723 29.392)">
      <g id="Group_63" data-name="Group 63" transform="translate(7.753)">
        <g id="Group_57" data-name="Group 57" transform="translate(17.392 6.717)">
          <path id="Path_122" data-name="Path 122" class="cls-2" d="M461.41,156.556c-.393.393-1.816-.368-3.165-1.693l-4.514-4.441c-1.349-1.325-2.134-2.748-1.742-3.14s1.816.368,3.165,1.693l4.514,4.441C461.017,154.741,461.8,156.164,461.41,156.556Z" transform="translate(-451.888 -147.179)"/>
        </g>
        <g id="Group_58" data-name="Group 58" transform="translate(44.748 33.68)">
          <path id="Path_123" data-name="Path 123" class="cls-2" d="M572.91,266.456c-.393.393-1.816-.368-3.165-1.693l-4.514-4.441c-1.349-1.325-2.135-2.748-1.742-3.14s1.816.368,3.165,1.693l4.514,4.441C572.517,264.641,573.3,266.064,572.91,266.456Z" transform="translate(-563.388 -257.079)"/>
        </g>
        <path id="Path_124" data-name="Path 124" class="cls-3" d="M441.624,167.887v3.852l-7.949,8.047-4.318-4.244-14.7-14.475s-16.07-15.825-16.929-16.683S381,127.9,381,127.9l6.109-6.207,1.816-1.84,3.778-.049Z" transform="translate(-381 -119.8)"/>
        <g id="Group_59" data-name="Group 59" transform="translate(27.319 19.272)">
          <path id="Path_125" data-name="Path 125" class="cls-4" d="M504.188,212.224,492.46,200.668a.356.356,0,0,1,0-.515l1.668-1.693a.328.328,0,0,1,.491,0l11.727,11.556a.328.328,0,0,1,0,.491l-1.668,1.693A.312.312,0,0,1,504.188,212.224Z" transform="translate(-492.35 -198.35)"/>
        </g>
        <g id="Group_60" data-name="Group 60" transform="translate(40.978 32.398)">
          <path id="Path_126" data-name="Path 126" class="cls-4" d="M553.512,256.818l-5.3-2.993a.362.362,0,0,1-.1-.564l1.276-1.3a.328.328,0,0,1,.491,0l4.2,4.122a.328.328,0,0,1,0,.491l-.172.172A.324.324,0,0,1,553.512,256.818Z" transform="translate(-548.022 -251.85)"/>
        </g>
        <path id="Path_127" data-name="Path 127" class="cls-4" d="M531.45,266.2l-7.409,7.508-4.441-4.367,6.305-6.379a.37.37,0,0,1,.417-.074l5.054,2.748A.36.36,0,0,1,531.45,266.2Z" transform="translate(-485.595 -227.758)"/>
        <path id="Path_128" data-name="Path 128" class="cls-5" d="M558.579,283.892V282.1l-11.973-11.8-8.906,9.053,12.881,12.66Z" transform="translate(-499.255 -233.376)"/>
        <path id="Path_129" data-name="Path 129" class="cls-5" d="M409.247,137.712,396.219,125.2h-1.5l-8.023,8.121,13.617,13.445Z" transform="translate(-385.302 -123.875)"/>
        <g id="Group_61" data-name="Group 61" transform="translate(22.758 13.334)">
          <path id="Path_130" data-name="Path 130" class="cls-4" d="M473.794,174.849l3.435,6.33a.349.349,0,0,0,.564.1l1.668-1.693a.328.328,0,0,0,0-.491l-4.907-4.833a.328.328,0,0,0-.491,0l-.172.172A.348.348,0,0,0,473.794,174.849Z" transform="translate(-473.759 -174.15)"/>
        </g>
        <g id="Group_62" data-name="Group 62" transform="translate(14.402 14.617)">
          <path id="Path_131" data-name="Path 131" class="cls-4" d="M445.1,192.338l6.06-6.134a.384.384,0,0,0,.074-.393L447.7,179.58a.349.349,0,0,0-.564-.1l-7.434,7.557" transform="translate(-439.7 -179.379)"/>
        </g>
        <path id="Path_132" data-name="Path 132" class="cls-5" d="M477.243,228.95,465,216.879l5.643-5.741a1.081,1.081,0,0,1,1.521,0l10.721,10.574a1.081,1.081,0,0,1,0,1.521Z" transform="translate(-444.391 -188.493)"/>
      </g>
      <g id="Group_70" data-name="Group 70" transform="translate(0 7.949)">
        <g id="Group_64" data-name="Group 64" transform="translate(6.793 17.39)">
          <path id="Path_133" data-name="Path 133" class="cls-2" d="M386.61,232.456c.393-.393-.393-1.816-1.742-3.14l-4.514-4.441c-1.349-1.325-2.772-2.085-3.165-1.693s.393,1.816,1.742,3.14l4.514,4.441C384.794,232.088,386.217,232.849,386.61,232.456Z" transform="translate(-377.088 -223.079)"/>
        </g>
        <g id="Group_65" data-name="Group 65" transform="translate(34.173 44.353)">
          <path id="Path_134" data-name="Path 134" class="cls-2" d="M498.185,342.356c.393-.393-.393-1.816-1.742-3.14l-4.49-4.441c-1.349-1.325-2.772-2.085-3.165-1.693s.393,1.816,1.742,3.14l4.514,4.441C496.37,341.988,497.793,342.749,498.185,342.356Z" transform="translate(-488.688 -332.979)"/>
        </g>
        <path id="Path_135" data-name="Path 135" class="cls-3" d="M398.2,212.211l3.852-.049L410,204.115l-4.318-4.269-14.7-14.475s-16.07-15.825-16.929-16.683S357.325,152.2,357.325,152.2l-6.109,6.207-1.816,1.84.025,3.778Z" transform="translate(-349.4 -152.2)"/>
        <g id="Group_66" data-name="Group 66" transform="translate(19.517 27.074)">
          <path id="Path_136" data-name="Path 136" class="cls-4" d="M443,274.241l-11.752-11.58a.356.356,0,0,0-.515,0l-1.668,1.693a.328.328,0,0,0,0,.491L440.788,276.4a.328.328,0,0,0,.491,0l1.668-1.693A.3.3,0,0,0,443,274.241Z" transform="translate(-428.95 -262.55)"/>
        </g>
        <g id="Group_67" data-name="Group 67" transform="translate(32.839 40.59)">
          <path id="Path_137" data-name="Path 137" class="cls-4" d="M488.267,323.077l-3.067-5.25a.347.347,0,0,0-.564-.074l-1.276,1.3a.328.328,0,0,0,0,.491l4.2,4.122a.328.328,0,0,0,.491,0l.172-.172A.376.376,0,0,0,488.267,323.077Z" transform="translate(-483.25 -317.641)"/>
        </g>
        <path id="Path_138" data-name="Path 138" class="cls-4" d="M497.554,300.675l7.409-7.508-4.441-4.367-6.305,6.379a.366.366,0,0,0-.049.417l2.821,5.005A.36.36,0,0,0,497.554,300.675Z" transform="translate(-458.618 -255.286)"/>
        <path id="Path_139" data-name="Path 139" class="cls-5" d="M515.764,327.305l-1.791.049L502,315.553l8.906-9.053,12.88,12.684Z" transform="translate(-464.561 -268.644)"/>
        <path id="Path_140" data-name="Path 140" class="cls-5" d="M367.333,180.173l-12.709-12.831-.025-1.5,8.023-8.145,13.617,13.445Z" transform="translate(-353.324 -156.351)"/>
        <g id="Group_68" data-name="Group 68" transform="translate(13.482 22.646)">
          <path id="Path_141" data-name="Path 141" class="cls-4" d="M405.049,244.527l6.379,3.337a.338.338,0,0,1,.1.564l-1.668,1.693a.328.328,0,0,1-.491,0l-4.907-4.833a.328.328,0,0,1,0-.491l.172-.172A.4.4,0,0,1,405.049,244.527Z" transform="translate(-404.35 -244.503)"/>
        </g>
        <g id="Group_69" data-name="Group 69" transform="translate(14.729 14.132)">
          <path id="Path_142" data-name="Path 142" class="cls-4" d="M422.406,215.148l-6.06,6.134a.339.339,0,0,1-.393.074l-6.305-3.435a.338.338,0,0,1-.1-.564l7.434-7.557" transform="translate(-409.436 -209.8)"/>
        </g>
        <path id="Path_143" data-name="Path 143" class="cls-5" d="M459.523,246.871,447.281,234.8l-5.643,5.741a1.081,1.081,0,0,0,0,1.521l10.721,10.574a1.081,1.081,0,0,0,1.521,0Z" transform="translate(-418.772 -214.535)"/>
      </g>
    </g>
  </g>
</svg>
